<mxfile host="app.diagrams.net" modified="2021-09-07T07:00:07.097Z" agent="5.0 (X11; Linux x86_64) AppleWebKit/537.36 (KHTML, like Gecko) Chrome/83.0.4103.106 Safari/537.36" etag="tngnKaGE3YJ_0TAuNaZG" version="14.9.7" type="github">
  <diagram id="Em_9b6V31X5hPQA1lae7" name="Page-1">
    <mxGraphModel dx="2438" dy="853" grid="1" gridSize="10" guides="1" tooltips="1" connect="1" arrows="1" fold="1" page="1" pageScale="1" pageWidth="850" pageHeight="1100" math="0" shadow="0">
      <root>
        <mxCell id="0" />
        <mxCell id="1" parent="0" />
        <mxCell id="m7b0EnBtJ6y3r6dGydWh-178" value="" style="rounded=0;whiteSpace=wrap;html=1;strokeWidth=2;fillColor=none;dashed=1;" vertex="1" parent="1">
          <mxGeometry x="-60" y="590" width="1150" height="150" as="geometry" />
        </mxCell>
        <mxCell id="m7b0EnBtJ6y3r6dGydWh-109" value="" style="rounded=0;whiteSpace=wrap;html=1;fillColor=none;strokeColor=#FF0000;strokeWidth=2;" vertex="1" parent="1">
          <mxGeometry x="70" y="471" width="170" height="30" as="geometry" />
        </mxCell>
        <mxCell id="m7b0EnBtJ6y3r6dGydWh-134" style="edgeStyle=none;rounded=0;orthogonalLoop=1;jettySize=auto;html=1;exitX=1;exitY=0.5;exitDx=0;exitDy=0;dashed=1;endArrow=none;endFill=0;strokeColor=#000000;strokeWidth=1;" edge="1" parent="1" source="m7b0EnBtJ6y3r6dGydWh-116">
          <mxGeometry relative="1" as="geometry">
            <mxPoint x="260" y="524" as="targetPoint" />
          </mxGeometry>
        </mxCell>
        <mxCell id="m7b0EnBtJ6y3r6dGydWh-116" value="" style="rounded=0;whiteSpace=wrap;html=1;fillColor=none;strokeColor=#FF0000;strokeWidth=2;" vertex="1" parent="1">
          <mxGeometry x="70" y="509.13" width="170" height="30" as="geometry" />
        </mxCell>
        <mxCell id="m7b0EnBtJ6y3r6dGydWh-3" value="" style="rounded=0;whiteSpace=wrap;html=1;" vertex="1" parent="1">
          <mxGeometry x="270" y="260" width="270" height="252" as="geometry" />
        </mxCell>
        <mxCell id="m7b0EnBtJ6y3r6dGydWh-4" value="" style="rounded=0;whiteSpace=wrap;html=1;" vertex="1" parent="1">
          <mxGeometry x="560" y="260" width="280" height="252" as="geometry" />
        </mxCell>
        <mxCell id="m7b0EnBtJ6y3r6dGydWh-5" value="" style="rounded=1;whiteSpace=wrap;html=1;" vertex="1" parent="1">
          <mxGeometry x="277.5" y="280" width="121.25" height="40" as="geometry" />
        </mxCell>
        <mxCell id="m7b0EnBtJ6y3r6dGydWh-6" value="Pod 0" style="text;html=1;strokeColor=none;fillColor=none;align=center;verticalAlign=middle;whiteSpace=wrap;rounded=0;" vertex="1" parent="1">
          <mxGeometry x="277.5" y="260" width="40" height="20" as="geometry" />
        </mxCell>
        <mxCell id="m7b0EnBtJ6y3r6dGydWh-128" style="edgeStyle=none;rounded=0;orthogonalLoop=1;jettySize=auto;html=1;exitX=0.25;exitY=1;exitDx=0;exitDy=0;dashed=1;endArrow=openThin;endFill=0;strokeColor=#000000;strokeWidth=1;entryX=0.25;entryY=0;entryDx=0;entryDy=0;" edge="1" parent="1" source="m7b0EnBtJ6y3r6dGydWh-22" target="m7b0EnBtJ6y3r6dGydWh-28">
          <mxGeometry relative="1" as="geometry" />
        </mxCell>
        <mxCell id="m7b0EnBtJ6y3r6dGydWh-22" value="eth0" style="rounded=0;whiteSpace=wrap;html=1;fillColor=#FFFFFF;" vertex="1" parent="1">
          <mxGeometry x="298.75" y="300" width="77.5" height="20" as="geometry" />
        </mxCell>
        <mxCell id="m7b0EnBtJ6y3r6dGydWh-56" style="edgeStyle=none;shape=link;rounded=0;orthogonalLoop=1;jettySize=auto;html=1;exitX=0.5;exitY=1;exitDx=0;exitDy=0;" edge="1" parent="1" source="m7b0EnBtJ6y3r6dGydWh-25">
          <mxGeometry relative="1" as="geometry">
            <mxPoint x="405" y="550" as="targetPoint" />
          </mxGeometry>
        </mxCell>
        <mxCell id="m7b0EnBtJ6y3r6dGydWh-106" style="edgeStyle=none;rounded=0;orthogonalLoop=1;jettySize=auto;html=1;exitX=0.25;exitY=1;exitDx=0;exitDy=0;dashed=1;endArrow=openThin;endFill=0;strokeColor=#000000;strokeWidth=1;" edge="1" parent="1" source="m7b0EnBtJ6y3r6dGydWh-25" target="m7b0EnBtJ6y3r6dGydWh-55">
          <mxGeometry relative="1" as="geometry" />
        </mxCell>
        <mxCell id="m7b0EnBtJ6y3r6dGydWh-25" value="ens0" style="rounded=0;whiteSpace=wrap;html=1;fillColor=#A9C4EB;" vertex="1" parent="1">
          <mxGeometry x="366.25" y="492" width="77.5" height="20" as="geometry" />
        </mxCell>
        <mxCell id="m7b0EnBtJ6y3r6dGydWh-57" style="edgeStyle=none;shape=link;rounded=0;orthogonalLoop=1;jettySize=auto;html=1;exitX=0.5;exitY=1;exitDx=0;exitDy=0;" edge="1" parent="1" source="m7b0EnBtJ6y3r6dGydWh-26">
          <mxGeometry relative="1" as="geometry">
            <mxPoint x="698.75" y="550" as="targetPoint" />
          </mxGeometry>
        </mxCell>
        <mxCell id="m7b0EnBtJ6y3r6dGydWh-127" style="edgeStyle=none;rounded=0;orthogonalLoop=1;jettySize=auto;html=1;dashed=1;endArrow=openThin;endFill=0;strokeColor=#000000;strokeWidth=1;entryX=0.75;entryY=1;entryDx=0;entryDy=0;" edge="1" parent="1" source="m7b0EnBtJ6y3r6dGydWh-55" target="m7b0EnBtJ6y3r6dGydWh-26">
          <mxGeometry relative="1" as="geometry" />
        </mxCell>
        <mxCell id="m7b0EnBtJ6y3r6dGydWh-26" value="ens1" style="rounded=0;whiteSpace=wrap;html=1;fillColor=#FFCC99;" vertex="1" parent="1">
          <mxGeometry x="660" y="492" width="77.5" height="20" as="geometry" />
        </mxCell>
        <mxCell id="m7b0EnBtJ6y3r6dGydWh-27" value="" style="endArrow=classic;startArrow=classic;html=1;entryX=0.5;entryY=1;entryDx=0;entryDy=0;exitX=0.5;exitY=0;exitDx=0;exitDy=0;" edge="1" parent="1" source="m7b0EnBtJ6y3r6dGydWh-28" target="m7b0EnBtJ6y3r6dGydWh-22">
          <mxGeometry width="50" height="50" relative="1" as="geometry">
            <mxPoint x="377.5" y="440" as="sourcePoint" />
            <mxPoint x="427.5" y="390" as="targetPoint" />
          </mxGeometry>
        </mxCell>
        <mxCell id="m7b0EnBtJ6y3r6dGydWh-28" value="veth0" style="rounded=0;whiteSpace=wrap;html=1;fillColor=#FFCC99;" vertex="1" parent="1">
          <mxGeometry x="299.38" y="350" width="77.5" height="20" as="geometry" />
        </mxCell>
        <mxCell id="m7b0EnBtJ6y3r6dGydWh-30" value="" style="rounded=1;whiteSpace=wrap;html=1;" vertex="1" parent="1">
          <mxGeometry x="406.25" y="280" width="121.25" height="40" as="geometry" />
        </mxCell>
        <mxCell id="m7b0EnBtJ6y3r6dGydWh-31" value="Pod X" style="text;html=1;strokeColor=none;fillColor=none;align=center;verticalAlign=middle;whiteSpace=wrap;rounded=0;" vertex="1" parent="1">
          <mxGeometry x="406.25" y="260" width="40" height="20" as="geometry" />
        </mxCell>
        <mxCell id="m7b0EnBtJ6y3r6dGydWh-32" value="ethX" style="rounded=0;whiteSpace=wrap;html=1;fillColor=#FFFFFF;" vertex="1" parent="1">
          <mxGeometry x="427.5" y="300" width="77.5" height="20" as="geometry" />
        </mxCell>
        <mxCell id="m7b0EnBtJ6y3r6dGydWh-33" value="" style="endArrow=classic;startArrow=classic;html=1;entryX=0.5;entryY=1;entryDx=0;entryDy=0;exitX=0.5;exitY=0;exitDx=0;exitDy=0;" edge="1" parent="1" source="m7b0EnBtJ6y3r6dGydWh-34" target="m7b0EnBtJ6y3r6dGydWh-32">
          <mxGeometry width="50" height="50" relative="1" as="geometry">
            <mxPoint x="506.25" y="440" as="sourcePoint" />
            <mxPoint x="556.25" y="390" as="targetPoint" />
          </mxGeometry>
        </mxCell>
        <mxCell id="m7b0EnBtJ6y3r6dGydWh-34" value="vethX" style="rounded=0;whiteSpace=wrap;html=1;fillColor=#FFFFFF;" vertex="1" parent="1">
          <mxGeometry x="428.13" y="350" width="77.5" height="20" as="geometry" />
        </mxCell>
        <mxCell id="m7b0EnBtJ6y3r6dGydWh-35" value="" style="rounded=1;whiteSpace=wrap;html=1;" vertex="1" parent="1">
          <mxGeometry x="577.5" y="280" width="120" height="40" as="geometry" />
        </mxCell>
        <mxCell id="m7b0EnBtJ6y3r6dGydWh-36" value="Pod Y" style="text;html=1;strokeColor=none;fillColor=none;align=center;verticalAlign=middle;whiteSpace=wrap;rounded=0;" vertex="1" parent="1">
          <mxGeometry x="577.5" y="260" width="40" height="20" as="geometry" />
        </mxCell>
        <mxCell id="m7b0EnBtJ6y3r6dGydWh-37" value="ethY" style="rounded=0;whiteSpace=wrap;html=1;fillColor=#FFFFFF;" vertex="1" parent="1">
          <mxGeometry x="598.75" y="300" width="77.5" height="20" as="geometry" />
        </mxCell>
        <mxCell id="m7b0EnBtJ6y3r6dGydWh-38" value="" style="endArrow=classic;startArrow=classic;html=1;entryX=0.5;entryY=1;entryDx=0;entryDy=0;exitX=0.5;exitY=0;exitDx=0;exitDy=0;" edge="1" parent="1" source="m7b0EnBtJ6y3r6dGydWh-39" target="m7b0EnBtJ6y3r6dGydWh-37">
          <mxGeometry width="50" height="50" relative="1" as="geometry">
            <mxPoint x="677.5" y="440" as="sourcePoint" />
            <mxPoint x="727.5" y="390" as="targetPoint" />
          </mxGeometry>
        </mxCell>
        <mxCell id="m7b0EnBtJ6y3r6dGydWh-39" value="vethY" style="rounded=0;whiteSpace=wrap;html=1;fillColor=#FFFFFF;" vertex="1" parent="1">
          <mxGeometry x="598.75" y="350" width="77.5" height="20" as="geometry" />
        </mxCell>
        <mxCell id="m7b0EnBtJ6y3r6dGydWh-40" value="" style="rounded=1;whiteSpace=wrap;html=1;" vertex="1" parent="1">
          <mxGeometry x="707.5" y="280" width="120" height="40" as="geometry" />
        </mxCell>
        <mxCell id="m7b0EnBtJ6y3r6dGydWh-41" value="Pod 1" style="text;html=1;strokeColor=none;fillColor=none;align=center;verticalAlign=middle;whiteSpace=wrap;rounded=0;" vertex="1" parent="1">
          <mxGeometry x="707.5" y="260" width="40" height="20" as="geometry" />
        </mxCell>
        <mxCell id="m7b0EnBtJ6y3r6dGydWh-42" value="eth1" style="rounded=0;whiteSpace=wrap;html=1;fillColor=#FFFFFF;" vertex="1" parent="1">
          <mxGeometry x="728.75" y="300" width="77.5" height="20" as="geometry" />
        </mxCell>
        <mxCell id="m7b0EnBtJ6y3r6dGydWh-43" value="" style="endArrow=classic;startArrow=classic;html=1;entryX=0.5;entryY=1;entryDx=0;entryDy=0;exitX=0.5;exitY=0;exitDx=0;exitDy=0;" edge="1" parent="1" source="m7b0EnBtJ6y3r6dGydWh-44" target="m7b0EnBtJ6y3r6dGydWh-42">
          <mxGeometry width="50" height="50" relative="1" as="geometry">
            <mxPoint x="807.5" y="440" as="sourcePoint" />
            <mxPoint x="857.5" y="390" as="targetPoint" />
          </mxGeometry>
        </mxCell>
        <mxCell id="m7b0EnBtJ6y3r6dGydWh-125" style="edgeStyle=none;rounded=0;orthogonalLoop=1;jettySize=auto;html=1;exitX=0.75;exitY=0;exitDx=0;exitDy=0;entryX=0.75;entryY=1;entryDx=0;entryDy=0;dashed=1;endArrow=openThin;endFill=0;strokeColor=#000000;strokeWidth=1;" edge="1" parent="1" source="m7b0EnBtJ6y3r6dGydWh-44" target="m7b0EnBtJ6y3r6dGydWh-42">
          <mxGeometry relative="1" as="geometry" />
        </mxCell>
        <mxCell id="m7b0EnBtJ6y3r6dGydWh-44" value="veth1" style="rounded=0;whiteSpace=wrap;html=1;fillColor=#A9C4EB;" vertex="1" parent="1">
          <mxGeometry x="728.75" y="350" width="77.5" height="20" as="geometry" />
        </mxCell>
        <mxCell id="m7b0EnBtJ6y3r6dGydWh-45" value="bridge" style="rounded=0;whiteSpace=wrap;html=1;strokeColor=#000000;fillColor=#FFFFFF;" vertex="1" parent="1">
          <mxGeometry x="277.5" y="370" width="250" height="20" as="geometry" />
        </mxCell>
        <mxCell id="m7b0EnBtJ6y3r6dGydWh-51" value="bridge" style="rounded=0;whiteSpace=wrap;html=1;strokeColor=#000000;fillColor=#FFFFFF;" vertex="1" parent="1">
          <mxGeometry x="587.5" y="370" width="230" height="20" as="geometry" />
        </mxCell>
        <mxCell id="m7b0EnBtJ6y3r6dGydWh-55" value="" style="line;strokeWidth=4;html=1;perimeter=backbonePerimeter;points=[];outlineConnect=0;fillColor=#FFFFFF;" vertex="1" parent="1">
          <mxGeometry x="30" y="545" width="1030" height="10" as="geometry" />
        </mxCell>
        <mxCell id="m7b0EnBtJ6y3r6dGydWh-86" value="&lt;table cellpadding=&quot;4&quot; cellspacing=&quot;0&quot; border=&quot;1&quot; style=&quot;font-size: 1em ; width: 100% ; height: 100%&quot;&gt;&lt;tbody&gt;&lt;tr&gt;&lt;th&gt;Pod IP&lt;/th&gt;&lt;th&gt;Pod Mac&lt;/th&gt;&lt;/tr&gt;&lt;tr&gt;&lt;td&gt;IP-eth0&lt;/td&gt;&lt;td&gt;Mac-eth0, Mac-veth0&lt;/td&gt;&lt;/tr&gt;&lt;tr&gt;&lt;td&gt;IP-eth1&lt;/td&gt;&lt;td&gt;Mac-eth1, Mac-veth1&lt;/td&gt;&lt;/tr&gt;&lt;/tbody&gt;&lt;/table&gt; " style="verticalAlign=top;align=left;overflow=fill;fontSize=12;fontFamily=Helvetica;html=1;strokeColor=#000000;fillColor=#FFFFFF;" vertex="1" parent="1">
          <mxGeometry x="737.5" y="640" width="302.5" height="90" as="geometry" />
        </mxCell>
        <mxCell id="m7b0EnBtJ6y3r6dGydWh-87" value="Mac-eth0" style="rounded=0;whiteSpace=wrap;html=1;strokeColor=#000000;fillColor=#FFF2CC;" vertex="1" parent="1">
          <mxGeometry x="-50" y="323.2" width="60" height="20" as="geometry" />
        </mxCell>
        <mxCell id="m7b0EnBtJ6y3r6dGydWh-88" value="Mac-veth0" style="rounded=0;whiteSpace=wrap;html=1;strokeColor=#000000;fillColor=#FFF2CC;" vertex="1" parent="1">
          <mxGeometry x="10" y="323.2" width="60" height="20" as="geometry" />
        </mxCell>
        <mxCell id="m7b0EnBtJ6y3r6dGydWh-175" style="edgeStyle=none;rounded=0;orthogonalLoop=1;jettySize=auto;html=1;dashed=1;endArrow=openThin;endFill=0;strokeColor=#000000;strokeWidth=1;shape=flexArrow;" edge="1" parent="1">
          <mxGeometry relative="1" as="geometry">
            <mxPoint x="92.58823529411757" y="450" as="targetPoint" />
            <mxPoint x="93" y="360" as="sourcePoint" />
          </mxGeometry>
        </mxCell>
        <mxCell id="m7b0EnBtJ6y3r6dGydWh-89" value="IP-eth0" style="rounded=0;whiteSpace=wrap;html=1;strokeColor=#000000;fillColor=#F8CECC;" vertex="1" parent="1">
          <mxGeometry x="70" y="323.2" width="45" height="20" as="geometry" />
        </mxCell>
        <mxCell id="m7b0EnBtJ6y3r6dGydWh-90" value="IP-eth1" style="rounded=0;whiteSpace=wrap;html=1;strokeColor=#000000;fillColor=#F8CECC;" vertex="1" parent="1">
          <mxGeometry x="115" y="323.2" width="45" height="20" as="geometry" />
        </mxCell>
        <mxCell id="m7b0EnBtJ6y3r6dGydWh-92" value="" style="shape=image;verticalLabelPosition=bottom;labelBackgroundColor=#ffffff;verticalAlign=top;aspect=fixed;imageAspect=0;image=data:image/png,iVBORw0KGgoAAAANSUhEUgAAAOEAAADhCAMAAAAJbSJIAAAAz1BMVEX///8AO0nX1tYAsa3z8/P7+/usq6v39/cAq6cArqoALj4AOEcANEPm5eWhoKCZp6wbR1TAv8CgrLFddX0AJTfn7O3GxsYAtrJSwLw0vbgALz8AHzPw+vrj4+MTurZDv7qFy8Xk9fV1x8Ka0coAKTu95uXp9/eU19WG1dOAycOo3t1ew75sxcHN7Ou04+HU7+61tLSTkpKf2teQn6XR0NG8xsk6W2YAECrEzdBvhItZcnsoT1tBYGpyzst80s6k19OLiYqwu799kJZ3ipEAACBFzAQBAAAPxElEQVR4nO1dC1vaTBMNl4hcvBaEcAsggsrNFmu1Vfvafv//N307M5tkN9kkSDEbfHKePgphs5mzO3tm9kI1jAwZMmTIkCFDhgxboVQyTd02fCBM4Fc8KpZ0G/JRKHFmvV7xc/ajR6uYb3xCimYRfnZfb/FN/qj02TgSoaty+bDVhVdH+c/lqdSBxsthoVAoFxbwusS6UatNOwVJzLBZLiAOr/HqJxIcIvINOrBQBpZlawhXGp/EU7nEtNBD+0NO9BMJjisxjnuSsx7O8PrR/nsqScyrIDGy4BT3XHBEieFhAiD06J4LjiQxt8IHXRu70ZrAm/0VHFFiZIIM008gOOShi0KZYgT3SRcrLjj4Zi8FR5SY8oL95j7pYb8Fh0tM35UYJi7l8lIutM+CQ8be4lg7/IaXujbz1Be52N4KjpTFNIfOZSYuwjv3GitziJ27P4IjSozUawuvR12sqNgc3+yJp5LEXJPEXMmfNWFU+kjMSXBWeG++kXrBMUliLOwZuyt91m2VC2UveXOwJMGZ4pvUd6NCYlyA35ZvWRjkZFxMbIyZ9h4IDkmMOSOJWckfTnlIZF5Z9nUuFxyKJqUUC06oxBikrPzashwcoPshOFESgx7qBPyJFQyNXHCaXHDSmOGQxEyUEoMe2heStmt47wuNaRccGjpLkhifkgge6gD69NA33ZBaJ22rjXy1UC0xkoc6gISNTyw8vJY9D0+X4JDErJQS42qoH3C9IDXGFYZ+t4oUeSoZci0ovgeFhzqAFhEdGgZnSxacdGQ4XGJ41PZJjNJDXTCvdkUJ5x5sInVb9oaymYpu5BIjCqEH9NCh4i4OlvzwYYfzR3yVMsHhEiNmzx4iPNQBJLDQc+ChltP/YkjVLTiSxMx9H64iPdQBrG/YLXkdZ5EawaFH07LZoZ+LasKrwhVt10hJkJPa4u36BIckpmvTjpKPywYe6gCiYNkfGrng4PTEzPe0eKq4IVH2qyhGglgPBUALlcvBQcynmPr2U0WJKZSnrhISpoq8U40F3okN4ptOahYcU5AYGC44XXh1PtzcQ695woO3tBTBtOBUm7DgEEEuMXPXVuq2zTQUgFGetwuERv/6hrRcl0+UYslwJcbdkKBFCtyI2UhDHQ913sEOlX/pnwtOGRzYPOslKKnsURN6tsCF5HP2bg918aLI0fmyOdR4cZ/cKRw4mjZFhjKXbyiLhXd7qIMrd3VYwDUOBTZE7896iTEEWbsOxmnWCxDaXtU3yWA+HVjqMK7LQQef2C7Du+Tc1GMoRWqzRaHNr4kKBDzU4L3qT/2uaDBASn93l9fAsFDwZvQU5ZcKTfRDtUuDuYN/YYNm/eQq5tcEpYYzbDbhX5lPmRwNnVgKTZSwgI4OeKhCgocWPoB84u744ijpcWh1bWZBs4AJGwgpdzHVdqgA1bKG0kNvsRHLlOvcfb1LMHUjhk0LFBUoFijtcl0MHS5EUVUaqvRQc4Z193EUHH09vrtPrgsFhsaqid0oR0Z1lyAwL9jEQxdUMY3WCySYZMD3GLIIAZY0Cy25CM4OV4E7IdGzN/HQa+4c+LjjrwdnyU4SkWGTMzSWSLHpW6NRTheG0IO+iyoPnVjeADfy0IEJT/RlhrI9HiB/82+H0kWxoMpDqc0K1GZ30IFJz518DNFlwSTf+FJNF3wXlR46K3gS0zg+vrvoJX66P8CQ6ULT0wUXyukC5NLOxYXCQ1diVRcaPBQQZMgbvtn3icuLuEooXQS5UXnolEY1ScwBeeiu7Y+HiiGLz9j2QR0JZth0ET3UtwIl5hBG7yt6qK5FqABDJjhNheAoc1Bafgp6qH6J4VAzdASn6esylS/S9NJ/9UXw9OLx8cFFXtcXiMIYOoLjS8oU26HdFs4ZpIurviAx95okhiOUIUsmm/1+v+lbScT1DXHE4ewCL3oUpqz3GEc6AHZAWYy25fxwhkxw+kCx6ROcb9J2KPhtYSiFxq6NTdPCjC6vT2I4iGFfybBr95Gjb6I/9E4KeRrqXbyCDmR3uTOle81bTuEMl2gpeqovm3nh26HSqHyh40Mv7l3UML0zzVujnKEd/ARNbVpkrU9w8KTQYkoe6l1kQ9IiD6VuTMe2ITDsBxmuiNmLIzi+7V9Y3yj7o3yXiPWZxKzEhtG7wR3CcCp0wi299kX0OYuC/rgxw4I0aXwRGkbrOQVgOPUzpM5wFWZIrjcTO+I2uIt2Rf3mTC6XQsPo2jYEqBheMeWx+uI8+BqvCIIzCx4SojKWx3piswtWc6b5nAIxtESGr01LNpVh0Udr+UxpGJz0D4mOnLVOsaa++zVMbXmpxHBlKUzFMQbW4hi7DRyBYmPVgo/9i3K8Mq1fUkCGluUuPn3ro6n+SZIBGQ4nEfRQTr8VXFg1X6hhNAqOzJCbOlPuVgxtCzkGPHRB1/1njAjLvte7Wr6kIDFkptq21fcvq7m4Zu7MCvhmSnjVsoLrjYRJCyt9oa9hJi84xNBGr7tG++0wUw3eBLYlNsGwhZdeIgyf9qGEpUlw4HHfkCFzQjAkesvQfMFCM3fELeG9bUXvpK6oaj1nhpGhzRhyUxUSI0MqR4TtWfjejREsV0zWUx2Gr3ar1bLVEiNjOIOiFkSAlc1eyk4bhiUVdQXn36x+D4hha3NTDRi30Bqt1Tf8HTVuBUywYexX6L5GggcViGGLsJmpDAswtkU/Xje2dYo3tECIz/LFrazdBh7D63c0a3dE1rbsjQ5rcKzoHvbqPuE9YGSo3CIMxxIpxkqMjAU2StJnMUogGGjtRoefXDDBsdVZTChu6Tns1VmCZzHwYCJr29nsfR7HsIyNLBK6c/aQWWsEcn2cYB+aOCC6I+/pHwRsxVkLWzF/nOCZKKPYw1+38PxZK+b0zPaYIj8aCUdfD5IMF+bRPSr3cIYU3zm0NoRU+cXXg4skzyYapaOLPL7AZp7N3yc4G0F0ENhITHgR3Cwd3V/gAxeM33zWep+AxKM7YvXOZjfuWYXkV/lLjfzZEbdlzjgOdvp83m4k1LCRqGOV3yz2Lu7x1S1SnG2cv8VjijWS7zf0bSQyT81fkODM0aLfO6qYV0cpva6zCgToRoob1Oij9+VjIVhCXfMZSoz2jUSz6AkOmvXvgtMd0LDWfVbBhSc4N0hx+o/WrOZYDUnMmcazCh48wVnOR6PRfP5PgvMb6xjRSqnWswoCBMEZoX3bC86EKiCJ0XxWQYInOJdo4c2WgnMFd4/mgsRo91AHguCQkdsIjjnF5kmPxMjwBGcAFEeX77ZthffNPYnRfFYhAPBUesUE5+ZmNHpnLv57BHfdcIlheXZKvqkuwCz1+KshGHszes/kfzLAW0ij0iQxMlybzEu0d7Dx5P8Kyt+M0igxEgSjFoLJsZAaJH0SI0Bs9u7gZjBgbreBpasbLCpKTEoJGrJjLUcDZvggVnCoXKolxoVv6AyhbwYxgjOBvh7c8DTov7RKDIdfHMzfaP1lhOAsoMTgho9XU/uBvRgEbZMJBOBvAvM40a/6vh+K1p9cDgQn9GE4wA+9DM9M8vt320DpX0ukoRKcqxv/J/vJkPfUwJ+Ld7F3B1I42VOGbLQNLi8vB7LgLAbs4mAgj9B9ZQh0gOLAm/wrSe8zQxAcYOSExiG9DUwi95ghCM4lACf/V/Q6KD57zZD1G4ANvO5vfKXKWPebIRt7xAx/XiqTgD1nyATn0oU6kdt7hkxwCGHrVPvPkImMWmI4PgNDJjjL8FKfgmEkMobakTGMRcZQOzKGscgYakfGMBYZQ+3IGMYiY6gdGcNYZAy1I2MYi4yhdmQMY6GToWmW4vHP39mB/0e3GP8c8wNaAWrdAP/8nI2eUmrs/mB7cl9O3Qw7/+p66g6AmLv+jldIFzYe307W6/X59wS/Fchxd7/bTlQwNL8/5erjcaXdblfG9fHDuhcsI+Dx5OQkuoRRZEVO8jGWnLMyb+z3rjU3wLDxpzKuVXMequ3Ow1tEDSedyjgX7ViNH5VK5yTGkty4Uv/Jfh+ffSjD0t9O22HG4Lwcnz6G1nBSyeVqz5EPadRzucp5jCWn1Vzti/HRDN/axK9Wqddzvx5+1TrjNtKsdp7CagCGufE66iHpYfjUATrVyvjnGx9Zpcf1r3oNOLZPG+oakGGu8z3iIalh+Iy2Vmoncsf2njo1JK6mSAxz45AGAKSF4QN4aLX+R2Hhcz18rHGG1dPwh6SE4TMQrOXUwn9er1ZCQicyZN7d/hL6kHQw/DOGwfYQVnmvE6amwLD6wCjWQzmkguFjB3rwIb5gAMBw3IBe7IQF9VQwhNhXPd2mamBYL+U7EEHDcsAUMFzDYKrHJF9qIMMiG6nhPpAChiUYhOM4G9TgDI0n8FaFEBupYAhdWP21XQ0OQ+MXDEVlBpsChjAK6+GpZyRchg1whLoq8Otn+Fjfvgs9hqjHSrXSz/BvbQMLwuAxNNasF9s/g0X0M8Rgtu2CjcDQ+Mmaqh6cCGpn2ADvigj20RAZmthWgQGtneF3cK7ICV4URIZGD0Z02+8O2hmesJx7HDW/i4TE0HjrKAK/doZPtW3zGYDMEAN/5a9cRDtD0Ifx1ouUPobGA7SXHPi1M4SpT23rGvwMixVQG8kltDNk6VY1t3UNfoYU+HOilZ+NobGGaYYY+LUzfIY1iK1rDTI0frbl9UXtDL/UAja+AwqG/sCvneGf9g6jBQICv7C+qJ3hOcxdo7YmIqFiiIHfm61oZ/jIsraaena+AZQMjb+szoqzE6CdYQmSya3FVM2QAj9npZ0hhvzOtgMxhGGx7a0v6me4ZlLT3tZNQxgatL6IyaB+hj1cDt6y3jCGxom72aGfIbppJW6TNgShDI0vbb6+mAKG3zF+bTe9CGcIRuPGYgoYoi218M2jKEQwdNYX08AQO7G+VdSPYGh8x/XFVDDEWXD45lEUohjinl37SykNDDF8VcfhFEP7N5Kh8QzrB382WY/98B1S3ECshi5IrX/8DfkkmmEJzuaAf+hnaJx38EyFMvA3nsehpy2iGRr5Op3JSQFDY40UK4rDQesxjtLwsxhRs8vzemoYsl7E4zT1X2/i1d6fMZ62qIecGYpjiOuLKWFoPNbadMhr/Lx+y/d6vce3v6d1utYJWxSPZYgbiylhaJToVBSszI/rDOMKP8Q3Pg1V2XiGjXE1NQyZMDzjASgJ1XFUzhrPEHU6NQwZx6dKve0dS6xVOr/Oox65/lGv/y9mHYuV+RGX2Nc69U4Cpy8Jj+vnHHppvXL6dB5xYA2AJ/3jHgOn8OOLYJlEGOIDG0xpEvy7IS52zjBt32Mp7voUtHm0y9p2gINd/8UZs3GfTxEujo93/vfJSkf3dwfpwd1ZfteD3ywd9XT3nIiP+G9qzVIxPYiPKhkyZMiQIcPm+D8Zv+2zC+rfoQAAAABJRU5ErkJggg==;" vertex="1" parent="1">
          <mxGeometry x="669.38" y="403.75" width="58.75" height="58.75" as="geometry" />
        </mxCell>
        <mxCell id="m7b0EnBtJ6y3r6dGydWh-93" value="" style="shape=image;verticalLabelPosition=bottom;labelBackgroundColor=#ffffff;verticalAlign=top;aspect=fixed;imageAspect=0;image=data:image/png,iVBORw0KGgoAAAANSUhEUgAAAOEAAADhCAMAAAAJbSJIAAAAz1BMVEX///8AO0nX1tYAsa3z8/P7+/usq6v39/cAq6cArqoALj4AOEcANEPm5eWhoKCZp6wbR1TAv8CgrLFddX0AJTfn7O3GxsYAtrJSwLw0vbgALz8AHzPw+vrj4+MTurZDv7qFy8Xk9fV1x8Ka0coAKTu95uXp9/eU19WG1dOAycOo3t1ew75sxcHN7Ou04+HU7+61tLSTkpKf2teQn6XR0NG8xsk6W2YAECrEzdBvhItZcnsoT1tBYGpyzst80s6k19OLiYqwu799kJZ3ipEAACBFzAQBAAAPxElEQVR4nO1dC1vaTBMNl4hcvBaEcAsggsrNFmu1Vfvafv//N307M5tkN9kkSDEbfHKePgphs5mzO3tm9kI1jAwZMmTIkCFDhgxboVQyTd02fCBM4Fc8KpZ0G/JRKHFmvV7xc/ajR6uYb3xCimYRfnZfb/FN/qj02TgSoaty+bDVhVdH+c/lqdSBxsthoVAoFxbwusS6UatNOwVJzLBZLiAOr/HqJxIcIvINOrBQBpZlawhXGp/EU7nEtNBD+0NO9BMJjisxjnuSsx7O8PrR/nsqScyrIDGy4BT3XHBEieFhAiD06J4LjiQxt8IHXRu70ZrAm/0VHFFiZIIM008gOOShi0KZYgT3SRcrLjj4Zi8FR5SY8oL95j7pYb8Fh0tM35UYJi7l8lIutM+CQ8be4lg7/IaXujbz1Be52N4KjpTFNIfOZSYuwjv3GitziJ27P4IjSozUawuvR12sqNgc3+yJp5LEXJPEXMmfNWFU+kjMSXBWeG++kXrBMUliLOwZuyt91m2VC2UveXOwJMGZ4pvUd6NCYlyA35ZvWRjkZFxMbIyZ9h4IDkmMOSOJWckfTnlIZF5Z9nUuFxyKJqUUC06oxBikrPzashwcoPshOFESgx7qBPyJFQyNXHCaXHDSmOGQxEyUEoMe2heStmt47wuNaRccGjpLkhifkgge6gD69NA33ZBaJ22rjXy1UC0xkoc6gISNTyw8vJY9D0+X4JDErJQS42qoH3C9IDXGFYZ+t4oUeSoZci0ovgeFhzqAFhEdGgZnSxacdGQ4XGJ41PZJjNJDXTCvdkUJ5x5sInVb9oaymYpu5BIjCqEH9NCh4i4OlvzwYYfzR3yVMsHhEiNmzx4iPNQBJLDQc+ChltP/YkjVLTiSxMx9H64iPdQBrG/YLXkdZ5EawaFH07LZoZ+LasKrwhVt10hJkJPa4u36BIckpmvTjpKPywYe6gCiYNkfGrng4PTEzPe0eKq4IVH2qyhGglgPBUALlcvBQcynmPr2U0WJKZSnrhISpoq8U40F3okN4ptOahYcU5AYGC44XXh1PtzcQ695woO3tBTBtOBUm7DgEEEuMXPXVuq2zTQUgFGetwuERv/6hrRcl0+UYslwJcbdkKBFCtyI2UhDHQ913sEOlX/pnwtOGRzYPOslKKnsURN6tsCF5HP2bg918aLI0fmyOdR4cZ/cKRw4mjZFhjKXbyiLhXd7qIMrd3VYwDUOBTZE7896iTEEWbsOxmnWCxDaXtU3yWA+HVjqMK7LQQef2C7Du+Tc1GMoRWqzRaHNr4kKBDzU4L3qT/2uaDBASn93l9fAsFDwZvQU5ZcKTfRDtUuDuYN/YYNm/eQq5tcEpYYzbDbhX5lPmRwNnVgKTZSwgI4OeKhCgocWPoB84u744ijpcWh1bWZBs4AJGwgpdzHVdqgA1bKG0kNvsRHLlOvcfb1LMHUjhk0LFBUoFijtcl0MHS5EUVUaqvRQc4Z193EUHH09vrtPrgsFhsaqid0oR0Z1lyAwL9jEQxdUMY3WCySYZMD3GLIIAZY0Cy25CM4OV4E7IdGzN/HQa+4c+LjjrwdnyU4SkWGTMzSWSLHpW6NRTheG0IO+iyoPnVjeADfy0IEJT/RlhrI9HiB/82+H0kWxoMpDqc0K1GZ30IFJz518DNFlwSTf+FJNF3wXlR46K3gS0zg+vrvoJX66P8CQ6ULT0wUXyukC5NLOxYXCQ1diVRcaPBQQZMgbvtn3icuLuEooXQS5UXnolEY1ScwBeeiu7Y+HiiGLz9j2QR0JZth0ET3UtwIl5hBG7yt6qK5FqABDJjhNheAoc1Bafgp6qH6J4VAzdASn6esylS/S9NJ/9UXw9OLx8cFFXtcXiMIYOoLjS8oU26HdFs4ZpIurviAx95okhiOUIUsmm/1+v+lbScT1DXHE4ewCL3oUpqz3GEc6AHZAWYy25fxwhkxw+kCx6ROcb9J2KPhtYSiFxq6NTdPCjC6vT2I4iGFfybBr95Gjb6I/9E4KeRrqXbyCDmR3uTOle81bTuEMl2gpeqovm3nh26HSqHyh40Mv7l3UML0zzVujnKEd/ARNbVpkrU9w8KTQYkoe6l1kQ9IiD6VuTMe2ITDsBxmuiNmLIzi+7V9Y3yj7o3yXiPWZxKzEhtG7wR3CcCp0wi299kX0OYuC/rgxw4I0aXwRGkbrOQVgOPUzpM5wFWZIrjcTO+I2uIt2Rf3mTC6XQsPo2jYEqBheMeWx+uI8+BqvCIIzCx4SojKWx3piswtWc6b5nAIxtESGr01LNpVh0Udr+UxpGJz0D4mOnLVOsaa++zVMbXmpxHBlKUzFMQbW4hi7DRyBYmPVgo/9i3K8Mq1fUkCGluUuPn3ro6n+SZIBGQ4nEfRQTr8VXFg1X6hhNAqOzJCbOlPuVgxtCzkGPHRB1/1njAjLvte7Wr6kIDFkptq21fcvq7m4Zu7MCvhmSnjVsoLrjYRJCyt9oa9hJi84xNBGr7tG++0wUw3eBLYlNsGwhZdeIgyf9qGEpUlw4HHfkCFzQjAkesvQfMFCM3fELeG9bUXvpK6oaj1nhpGhzRhyUxUSI0MqR4TtWfjejREsV0zWUx2Gr3ar1bLVEiNjOIOiFkSAlc1eyk4bhiUVdQXn36x+D4hha3NTDRi30Bqt1Tf8HTVuBUywYexX6L5GggcViGGLsJmpDAswtkU/Xje2dYo3tECIz/LFrazdBh7D63c0a3dE1rbsjQ5rcKzoHvbqPuE9YGSo3CIMxxIpxkqMjAU2StJnMUogGGjtRoefXDDBsdVZTChu6Tns1VmCZzHwYCJr29nsfR7HsIyNLBK6c/aQWWsEcn2cYB+aOCC6I+/pHwRsxVkLWzF/nOCZKKPYw1+38PxZK+b0zPaYIj8aCUdfD5IMF+bRPSr3cIYU3zm0NoRU+cXXg4skzyYapaOLPL7AZp7N3yc4G0F0ENhITHgR3Cwd3V/gAxeM33zWep+AxKM7YvXOZjfuWYXkV/lLjfzZEbdlzjgOdvp83m4k1LCRqGOV3yz2Lu7x1S1SnG2cv8VjijWS7zf0bSQyT81fkODM0aLfO6qYV0cpva6zCgToRoob1Oij9+VjIVhCXfMZSoz2jUSz6AkOmvXvgtMd0LDWfVbBhSc4N0hx+o/WrOZYDUnMmcazCh48wVnOR6PRfP5PgvMb6xjRSqnWswoCBMEZoX3bC86EKiCJ0XxWQYInOJdo4c2WgnMFd4/mgsRo91AHguCQkdsIjjnF5kmPxMjwBGcAFEeX77ZthffNPYnRfFYhAPBUesUE5+ZmNHpnLv57BHfdcIlheXZKvqkuwCz1+KshGHszes/kfzLAW0ij0iQxMlybzEu0d7Dx5P8Kyt+M0igxEgSjFoLJsZAaJH0SI0Bs9u7gZjBgbreBpasbLCpKTEoJGrJjLUcDZvggVnCoXKolxoVv6AyhbwYxgjOBvh7c8DTov7RKDIdfHMzfaP1lhOAsoMTgho9XU/uBvRgEbZMJBOBvAvM40a/6vh+K1p9cDgQn9GE4wA+9DM9M8vt320DpX0ukoRKcqxv/J/vJkPfUwJ+Ld7F3B1I42VOGbLQNLi8vB7LgLAbs4mAgj9B9ZQh0gOLAm/wrSe8zQxAcYOSExiG9DUwi95ghCM4lACf/V/Q6KD57zZD1G4ANvO5vfKXKWPebIRt7xAx/XiqTgD1nyATn0oU6kdt7hkxwCGHrVPvPkImMWmI4PgNDJjjL8FKfgmEkMobakTGMRcZQOzKGscgYakfGMBYZQ+3IGMYiY6gdGcNYZAy1I2MYi4yhdmQMY6GToWmW4vHP39mB/0e3GP8c8wNaAWrdAP/8nI2eUmrs/mB7cl9O3Qw7/+p66g6AmLv+jldIFzYe307W6/X59wS/Fchxd7/bTlQwNL8/5erjcaXdblfG9fHDuhcsI+Dx5OQkuoRRZEVO8jGWnLMyb+z3rjU3wLDxpzKuVXMequ3Ow1tEDSedyjgX7ViNH5VK5yTGkty4Uv/Jfh+ffSjD0t9O22HG4Lwcnz6G1nBSyeVqz5EPadRzucp5jCWn1Vzti/HRDN/axK9Wqddzvx5+1TrjNtKsdp7CagCGufE66iHpYfjUATrVyvjnGx9Zpcf1r3oNOLZPG+oakGGu8z3iIalh+Iy2Vmoncsf2njo1JK6mSAxz45AGAKSF4QN4aLX+R2Hhcz18rHGG1dPwh6SE4TMQrOXUwn9er1ZCQicyZN7d/hL6kHQw/DOGwfYQVnmvE6amwLD6wCjWQzmkguFjB3rwIb5gAMBw3IBe7IQF9VQwhNhXPd2mamBYL+U7EEHDcsAUMFzDYKrHJF9qIMMiG6nhPpAChiUYhOM4G9TgDI0n8FaFEBupYAhdWP21XQ0OQ+MXDEVlBpsChjAK6+GpZyRchg1whLoq8Otn+Fjfvgs9hqjHSrXSz/BvbQMLwuAxNNasF9s/g0X0M8Rgtu2CjcDQ+Mmaqh6cCGpn2ADvigj20RAZmthWgQGtneF3cK7ICV4URIZGD0Z02+8O2hmesJx7HDW/i4TE0HjrKAK/doZPtW3zGYDMEAN/5a9cRDtD0Ifx1ouUPobGA7SXHPi1M4SpT23rGvwMixVQG8kltDNk6VY1t3UNfoYU+HOilZ+NobGGaYYY+LUzfIY1iK1rDTI0frbl9UXtDL/UAja+AwqG/sCvneGf9g6jBQICv7C+qJ3hOcxdo7YmIqFiiIHfm61oZ/jIsraaena+AZQMjb+szoqzE6CdYQmSya3FVM2QAj9npZ0hhvzOtgMxhGGx7a0v6me4ZlLT3tZNQxgatL6IyaB+hj1cDt6y3jCGxom72aGfIbppJW6TNgShDI0vbb6+mAKG3zF+bTe9CGcIRuPGYgoYoi218M2jKEQwdNYX08AQO7G+VdSPYGh8x/XFVDDEWXD45lEUohjinl37SykNDDF8VcfhFEP7N5Kh8QzrB382WY/98B1S3ECshi5IrX/8DfkkmmEJzuaAf+hnaJx38EyFMvA3nsehpy2iGRr5Op3JSQFDY40UK4rDQesxjtLwsxhRs8vzemoYsl7E4zT1X2/i1d6fMZ62qIecGYpjiOuLKWFoPNbadMhr/Lx+y/d6vce3v6d1utYJWxSPZYgbiylhaJToVBSszI/rDOMKP8Q3Pg1V2XiGjXE1NQyZMDzjASgJ1XFUzhrPEHU6NQwZx6dKve0dS6xVOr/Oox65/lGv/y9mHYuV+RGX2Nc69U4Cpy8Jj+vnHHppvXL6dB5xYA2AJ/3jHgOn8OOLYJlEGOIDG0xpEvy7IS52zjBt32Mp7voUtHm0y9p2gINd/8UZs3GfTxEujo93/vfJSkf3dwfpwd1ZfteD3ywd9XT3nIiP+G9qzVIxPYiPKhkyZMiQIcPm+D8Zv+2zC+rfoQAAAABJRU5ErkJggg==;" vertex="1" parent="1">
          <mxGeometry x="373.75" y="400" width="62.5" height="62.5" as="geometry" />
        </mxCell>
        <mxCell id="m7b0EnBtJ6y3r6dGydWh-94" value="1234" style="rounded=0;whiteSpace=wrap;html=1;strokeColor=#000000;fillColor=#D5E8D4;" vertex="1" parent="1">
          <mxGeometry x="160" y="323.2" width="40" height="20" as="geometry" />
        </mxCell>
        <mxCell id="m7b0EnBtJ6y3r6dGydWh-102" style="edgeStyle=none;rounded=0;orthogonalLoop=1;jettySize=auto;html=1;exitX=1;exitY=0.5;exitDx=0;exitDy=0;entryX=0;entryY=0.5;entryDx=0;entryDy=0;dashed=1;shape=flexArrow;strokeWidth=0;strokeColor=none;" edge="1" parent="1" source="m7b0EnBtJ6y3r6dGydWh-95" target="m7b0EnBtJ6y3r6dGydWh-28">
          <mxGeometry relative="1" as="geometry">
            <Array as="points">
              <mxPoint x="280" y="450" />
            </Array>
          </mxGeometry>
        </mxCell>
        <mxCell id="m7b0EnBtJ6y3r6dGydWh-168" style="edgeStyle=none;rounded=0;orthogonalLoop=1;jettySize=auto;html=1;exitX=1;exitY=0.5;exitDx=0;exitDy=0;dashed=1;endArrow=openThin;endFill=0;strokeColor=#000000;strokeWidth=1;entryX=-0.012;entryY=0.292;entryDx=0;entryDy=0;entryPerimeter=0;" edge="1" parent="1" source="m7b0EnBtJ6y3r6dGydWh-95" target="m7b0EnBtJ6y3r6dGydWh-3">
          <mxGeometry relative="1" as="geometry">
            <mxPoint x="259.99999999999955" y="332.8823529411766" as="targetPoint" />
          </mxGeometry>
        </mxCell>
        <mxCell id="m7b0EnBtJ6y3r6dGydWh-95" value="8080" style="rounded=0;whiteSpace=wrap;html=1;strokeColor=#000000;fillColor=#D5E8D4;" vertex="1" parent="1">
          <mxGeometry x="200" y="323.2" width="35" height="20" as="geometry" />
        </mxCell>
        <mxCell id="m7b0EnBtJ6y3r6dGydWh-108" style="edgeStyle=none;rounded=0;orthogonalLoop=1;jettySize=auto;html=1;exitX=1;exitY=0.5;exitDx=0;exitDy=0;entryX=0;entryY=0.5;entryDx=0;entryDy=0;dashed=1;endArrow=openThin;endFill=0;strokeColor=#000000;strokeWidth=1;" edge="1" parent="1" source="m7b0EnBtJ6y3r6dGydWh-109" target="m7b0EnBtJ6y3r6dGydWh-107">
          <mxGeometry relative="1" as="geometry">
            <Array as="points">
              <mxPoint x="260" y="486" />
              <mxPoint x="260" y="530" />
            </Array>
          </mxGeometry>
        </mxCell>
        <mxCell id="m7b0EnBtJ6y3r6dGydWh-96" value="Mac-ens0" style="rounded=0;whiteSpace=wrap;html=1;strokeColor=#000000;fillColor=#FFF2CC;" vertex="1" parent="1">
          <mxGeometry x="-50" y="474.75" width="60" height="20" as="geometry" />
        </mxCell>
        <mxCell id="m7b0EnBtJ6y3r6dGydWh-97" value="Mac-ens1" style="rounded=0;whiteSpace=wrap;html=1;strokeColor=#000000;fillColor=#FFF2CC;" vertex="1" parent="1">
          <mxGeometry x="10" y="474.75" width="60" height="20" as="geometry" />
        </mxCell>
        <mxCell id="m7b0EnBtJ6y3r6dGydWh-98" value="IP-eth0" style="rounded=0;whiteSpace=wrap;html=1;strokeColor=#000000;fillColor=#F8CECC;" vertex="1" parent="1">
          <mxGeometry x="70" y="474.75" width="45" height="20" as="geometry" />
        </mxCell>
        <mxCell id="m7b0EnBtJ6y3r6dGydWh-99" value="IP-eth1" style="rounded=0;whiteSpace=wrap;html=1;strokeColor=#000000;fillColor=#F8CECC;" vertex="1" parent="1">
          <mxGeometry x="115" y="474.75" width="45" height="20" as="geometry" />
        </mxCell>
        <mxCell id="m7b0EnBtJ6y3r6dGydWh-100" value="1234" style="rounded=0;whiteSpace=wrap;html=1;strokeColor=#000000;fillColor=#D5E8D4;" vertex="1" parent="1">
          <mxGeometry x="160" y="474.75" width="40" height="20" as="geometry" />
        </mxCell>
        <mxCell id="m7b0EnBtJ6y3r6dGydWh-101" value="8080" style="rounded=0;whiteSpace=wrap;html=1;strokeColor=#000000;fillColor=#D5E8D4;" vertex="1" parent="1">
          <mxGeometry x="200" y="475" width="35" height="20" as="geometry" />
        </mxCell>
        <mxCell id="m7b0EnBtJ6y3r6dGydWh-107" value="egress" style="text;html=1;strokeColor=none;fillColor=none;align=center;verticalAlign=middle;whiteSpace=wrap;rounded=0;" vertex="1" parent="1">
          <mxGeometry x="337" y="520" width="40" height="20" as="geometry" />
        </mxCell>
        <mxCell id="m7b0EnBtJ6y3r6dGydWh-110" value="Mac-ens0" style="rounded=0;whiteSpace=wrap;html=1;strokeColor=#000000;fillColor=#FFF2CC;" vertex="1" parent="1">
          <mxGeometry x="-50" y="512.88" width="60" height="20" as="geometry" />
        </mxCell>
        <mxCell id="m7b0EnBtJ6y3r6dGydWh-111" value="Mac-ens1" style="rounded=0;whiteSpace=wrap;html=1;strokeColor=#000000;fillColor=#FFF2CC;" vertex="1" parent="1">
          <mxGeometry x="10" y="512.88" width="60" height="20" as="geometry" />
        </mxCell>
        <mxCell id="m7b0EnBtJ6y3r6dGydWh-112" value="IP-ens0" style="rounded=0;whiteSpace=wrap;html=1;strokeColor=#000000;fillColor=#F8CECC;" vertex="1" parent="1">
          <mxGeometry x="70" y="512.88" width="45" height="20" as="geometry" />
        </mxCell>
        <mxCell id="m7b0EnBtJ6y3r6dGydWh-113" value="IP-ens1" style="rounded=0;whiteSpace=wrap;html=1;strokeColor=#000000;fillColor=#F8CECC;" vertex="1" parent="1">
          <mxGeometry x="115" y="512.88" width="45" height="20" as="geometry" />
        </mxCell>
        <mxCell id="m7b0EnBtJ6y3r6dGydWh-114" value="40001" style="rounded=0;whiteSpace=wrap;html=1;strokeColor=#000000;fillColor=#D5E8D4;" vertex="1" parent="1">
          <mxGeometry x="160" y="512.88" width="40" height="20" as="geometry" />
        </mxCell>
        <mxCell id="m7b0EnBtJ6y3r6dGydWh-115" value="50001" style="rounded=0;whiteSpace=wrap;html=1;strokeColor=#000000;fillColor=#D5E8D4;" vertex="1" parent="1">
          <mxGeometry x="200" y="512.88" width="35" height="20" as="geometry" />
        </mxCell>
        <mxCell id="m7b0EnBtJ6y3r6dGydWh-117" value="Option 1" style="text;html=1;strokeColor=none;fillColor=none;align=center;verticalAlign=middle;whiteSpace=wrap;rounded=0;" vertex="1" parent="1">
          <mxGeometry x="-130" y="475" width="60" height="20" as="geometry" />
        </mxCell>
        <mxCell id="m7b0EnBtJ6y3r6dGydWh-118" value="Option 2" style="text;html=1;strokeColor=none;fillColor=none;align=center;verticalAlign=middle;whiteSpace=wrap;rounded=0;" vertex="1" parent="1">
          <mxGeometry x="-130" y="512.25" width="60" height="20" as="geometry" />
        </mxCell>
        <mxCell id="m7b0EnBtJ6y3r6dGydWh-122" value="Text" style="text;html=1;strokeColor=none;fillColor=none;align=center;verticalAlign=middle;whiteSpace=wrap;rounded=0;" vertex="1" parent="1">
          <mxGeometry x="450" y="470" width="40" height="20" as="geometry" />
        </mxCell>
        <mxCell id="m7b0EnBtJ6y3r6dGydWh-124" value="" style="shape=image;verticalLabelPosition=bottom;labelBackgroundColor=#ffffff;verticalAlign=top;aspect=fixed;imageAspect=0;image=data:image/png,iVBORw0KGgoAAAANSUhEUgAAAX0AAACECAMAAABLTQsGAAABNVBMVEX///8BAQEAAADZ8f3/4QDp6ekAru88PDxCQkJvb2++vr6urq6lpaX29vaioqIuLi40NDTf+P//5QDX19e4uLgAsfPGxsbh+v//6AB5eXkAqu6cnJyEhITU1NRkZGTOzs7v7+8cHByCgoJPT0/h4eGSoqrI3ulRUVEmJiYODg5ycnKMjIxbW1u6z9kAmtRFTVHS6fXUuwA8Q0anusMAibxdZ2wBKTgAeKQBUG4BOU7O7vxeUwF4hoz32gApJAEzODuFlJxpdHqJ1PcAXH4Als4BJTOfsbqNnaW2oQA7u/J5awHLswDiyAAAbJTBqgA1LwFFPQEhGxY/jbCy5v8BFB0ma4iE0/dfw/MxufGk3/mYhgAARV4bFwEALkRxttaGdwGlkgByZAFxlKZPRgE7NQGVw9lgVQGq5+vfAAAUHElEQVR4nO2dC1caSRaAoRBEEBGQhxKxUYK0+H5EYyQ+4pjEmGR24655zGySze78/5+wVd31ruru6hYDG7jnzJkTpIvqr25X3Xvr1u1Y7CFkugPSSw/S8lgCZRkgyQy6G6MpJQDi8ThoDrofoykNBD8OwKD7MZLiqv6Y/mBkyoEfB91Bd2QUxSKqnxt0T0ZR6mPVH6B0XNW3x6o/AFnCE8/yoDsykrKMZ/3SoDsykpJ26U8Ouh8jKUk88dQH3ZGRlOx44hmgLI/93AHKikt/fdD9GEnJxV36M4PuyEhKDi+649j+IKSFwwytQXdkJKUyXnQHKHNj+gOU7Jj+AAXTH2/pDkQwfXvQ/RhNGc88g5TMmP6AJGdZVgbb++ONrZ8ouaVuYyXftO0mpr846B6NjmTWAZW4S3/eMrludbZr8r2xeMu0zahTAWA1MNSzhq6zrZ/QxV9WKnmFPMYPZud8r3STrsD8T+roryjLevZ4ANIV7ysbOBqa/3md/cUkl/aB7+j/lIfxk5zEV46336OKZfvCd/lrrZ85slIAMP2ze/2LSC4dwN7Fq25zWVPUNgKNAXT8/0CSpaW5end5Hslyd2ZuabElzSJTQZqPAcvr6ow9hu8ji9n5dAeo0pxdr2doqkjWCL6CeLpJr1MHZtSlNLMieU5sCscy2a3k6A5uOPytLtcuGKdcCVLq5lXsMkpHVmfmTeGja9Zg47mWO7D0U9vHHh09ya4EkBfHwBg++nq33sgLF8EBTA76hodIMp1wREOJPJMBnSk0umKtKuyVRbefY9GwBn3HQyQVES6xcU53t7a21uF/u3m7b2MA21jva46tlTQQy/LfcghuJKCBmEkv5CadC7PSrAB2D872NtrbiULVlcR2u72xd3a+1bzvCCC973Pwf15jHKtiT67PZ71HPR3cQmel8WjOO00sb9QNQZAxgvx+yiYOmid7EHshoUoBjcLVyW7EEXAvq/d9sX0U4n5nH3kMwKppC/kpj9D5ZCjwjiB3Z5G5no5s68izIYADs3fiPAOh4ee7D5HW/yiM7QtAWvvorRg24hCq6yahydAKiejn8hT+0/1N2PZJ1Y8+fgo2TvIh+QP7gUzMEPTj7tSn6YhJzIq1ALoq/2j06yTc+Le/l8vlI9j0RiB9NACJjYNQ/B+saEk4+qgjGj8vBH2nibxSACcafRvDz7c/LKTKSPl3TeijAWifh+H/UEcqwtJH8LL3o68LjUeiX8F7TPZ2IvE6lSq/NZt7XKludMzxP1TtgPD0Nc9hWPqwCelEciT6XZz/tAfXWqj8qfITiP+xKf5EIh9C+f03enWSSy5mMpWW5fedqUj2l2Q6hqaPwif3p4/P124hQ6fwGs098TD4CxshlH8qHPpSd5U4eZPz3iG5KPTjYOW+9CEmQZsi0Xfzn8CZY2YeI+W/RLd7DpdVaF1CT6uAPC1XoP+FfC/BGaiemtMPk9qcq8+KxvGkMlffi770IEagD9vgjadI9PGae+USvUD499HNdq7ae49Ptk5tkYGd3zo4e7zXRna/c0nhJMTEbxmz72qck7TeZI1EPw7S96YfF/aNItHHhwwfY32+W4Bm56WBn9Y5OLtqb8On4ywEfdM6hTMeP6q9PiJ98UB3NPp8hyLRxwVdTshs8nrz8Og3t6wdL/I/3f81D042zkPQN9tPKXkHXXQNKPTVy7S9EXbWItEXlD8S/XVu1U1U24+3uE4/OXrx9nD/cnMf3dCTy83N/f3Dty+Ont4G35v+54z8rWlP9vCnNFEumb7HlUpnhKlHoW/ShDDzK/R9bgPLPC4lBQCayfcY+i9v9zfhEuDIJpr7X6TK+J/lciq1uf8WPSHh4MdVJ0eryn6yortA+hXlAbHmVtRuiocMZPpganqGl3l9YIXbJJLpB8MHa7FFvOyeJ17iBfb26eGmyxgLwvyW/ROJOwqXhy+ehKIfbPDnVnz7q5t7gunHYsSpFL5n+dFXsrysGf8HSKFvNM1ikxO4OST20X6KJw9Bo9DPPz5CgZ8uOMKNwWWYiSe4QzkpSm43phdbrVKmQT9JK9cY0dfgF5bdYPqxWFJdHLgHSKFvNM12SU4fFEfrHbCI8eu7FLY/D46JfPj0z7u7jyk6Br+FirMF2Tw50ca3py3ylxZdiZVwhRl9zeLM98aEfsxSV1aWKRmNfoumVB5duugh2Y93Fx8SiU8L7rzT2ZZd3ONPF3flhQX4XJjDV917RcRpR/TkyVOhsDWkX7k/fVJ0jv8eXcqi0YfKj+eew7KDPnX36di1P1HU7RDe8JV2v6Vw/OEfISP8AT1p8OwnpaGq4M+VlduQvnXvmSem2YRhy25E+jly2Arslx30BC8KuqXgsnrqEeOpvgy5vxKQtVnn4StJhrl70o8p4Pg5zJD+tNIIjXRGpB/L0Lnn8OKYo3ux4AZ99KqfKJyF3FwMMHmWePhqug+hrzQSUfcDLE49fWXqYRoVlX5sje4tnvGxzbsFN9yv1/zCeVj4/qd4c/7w6eAo27KG9JfkrwmugyH9lkKfbhlFpk9/G4Atbk/9oxvt1+61FNoeB7Z86PsXSF3j4OtunXhhmj8Y0ZcTT8URNqRvPQT9ZIdcCpp7BDYKN6fg7e7pNP+xH3sXk/Khr8VT4eDrcpuT+G/q9qQZfVlrxfBwdN2nexbR6ceSTYofnLerZNF1jH3F3ExUN7b84TcPtuJKP/1Vn4usaRdnknCjrh1G9BVTXfqVyPP+vVddJEnuQAk4QVsryNpH9mZTYb/Nkhk0Oh4HHZQUsX0l/gU0Lb/fz3Kqr/s7sYfy6t6wQl/j02VtZc0VU4si2zz3tThdsfI80ZN2oXDhLrpb4nwvJJIA8Oyz5pTFhrNNud0B/Mf+UYYmg69ziDPkj5o4nUJ/vi5KV5ciLD2JhvTVUOh9vS0iDe5kAwAHexdues85W4YLBTcCzb72tVj7Jibg3t7SlJTtU+6b/udUMgy+bvOXGqOaEKdJfF9dhORwUWRflz5CCv25nLdo2q5zbcMO33453PyCTB60iVioVtsbZ1vCjQDwqjYxUdt5zo/HPucct5v0cQp4FwKL7+gy3pgnoFu4I+xtgbwVhb56StMvytbJe8pkOq8+GS0hO8chDRX55dXV1cuTg1NbQg9+3ED4ExPF3jWbtF6Uy7/RtYImPATtpyeZkmqGiT0YWnctNH0A0jJ8M/qrfs9QyN0V3a3UxYdU2lEU/mK/qhUnXKnt/IEp/1l27SS8TVwlhmmA7rMYQ1zhwv1R30hI+vp2DOgvaQ6HcxNquJ1FvSK1ptRJUnsHX3u1CSLFHgnU/QvlRDyFQ0PsowMSxPA19ln2tWKWWqz8jEc6UCj6sJmGrisK/bpwnmIx29Vl7fG31Q/6sVipEcQfsb9h7KHuf8aMz6uvU4LyJ7ZJCE+3XhLhJh6ZzBzLaPGK0YWhDyZn9GkpEfd1ubvqD32o//Pe+FEv/vjWo5OOS5+ofttNRoTK3yFm0h75m48BxvzcjjQsXMzZM0Aain6nkdU+hREzSjiG/aIfmyHE1HkOgOs3xaLAfqL4Bn8fGaevsYdMAqMFMvdo/CQiLHVKsEtz/KmUR55Xh515wIpGEaLR5wus9I1+HsO3Ff7gfU1Ue0f1v+PvbyQSVPlpGnrbxn/1PiPKNJzztJJCOptPNkRYmwe2NqsESqNlEvIeZL/ok6Ty697Oqx+yJ1uT2UN57n7fBf7aDVDQMxhVvA0Amp7Kzw5N0a9UhMSSWb8TR1HsfUUVItFf41voF/01rKw3xSJZT1m3dxTVL+5gvC8LCaL80OE9oD4yWXi93N0cNXmwW7C0LKY2rHlc6EojktpKbUbJYRYXqT7RxzuN4FnNmdKlq64V5ccjRLS9QM5gtMnCexXw0lGLBnnSsVxlWj4+2PSPEJU0sWwDa0XCHyV/X1y++0Qfn2EE74rMkmdX2T1Z+WvP3O+fYmX/hPcFaGooSTL3qkNl2SovJgExipyyy6NvRoUnLCXhz67Yku3UJ/okt9Bl+7t8b19l5e+9xxYP2Zb5iFOw6NRDrE6PeENSz8uRqaAklHmFLKiXJFnMrql+qri9EpI+XIrkjvWJPi7V+MOhXLtWNEua+Ys3OOOZbr6T3Xi2Kbbra/N7018LfINIVtVr7Y1ZdRU/v00Wij78yYZiQvQhzoMET/vfarwtzzX6XJx78NLAHTQ9RnlBfwKwRR4GOvPrHV4270tzTvAB30XNrOJxY4vqDMXZneHO6zY1aqTGOGd9pOO1mHHTPjMn+WbfT/D4i98wfbYFQ5Ih2vSTU/wdrS7LyZuOrJscsUvq5nQvtcooX+Ryhkzpo5/Laz2XaFm0suC8F2hvumvqV3XB+p3XfvwF0GSpDx9S7sFfEuyhqT8eS6ict2x7hANkIWmfZvSVRDTQYdOHWX1Fp28eVO+5t4WlhNW0J0zrYi/e77ClF68MYJdLPPno+rtbdN3dxvQ7Wo+Lq6INmlP1RcuspzlimxrSzypTD3PiTKJsoNnoLnm6jP2hvyTSJ3EEqWufaayHxBkOOPoX2N+lU0/1HLeqVRxW48U7mqMR+sgY0lfTQZj/p56eyAoyN1cJeBz7Q78i0dcoP/rzH696NWcEitjcP+HyDY+x1UOnngTe5dLXgGQJDWHqc3oUT/Smn/SZ+A131X3kYXRfNToJ/+t3N71esfdDpQ/9XbjsxrloQ5Uc0tD9ZIk93MbdzHnBD0OfDfaw0C+Jqy7yd+VkGMIfgOfvf39vq/Th1FP+E20K00ysAj5Yqj9AwWqvmpzsQtLiihFFp88s4GGhT2yed9SuKb7y2m3h7l6kf7yw7+wJM4er7Wf1sBzOWbNOLrFV0V43nXkyyjgNH31i738WzJpAg4zP+0FWD1J9YUh2faINXPK4kfLzh0orSnqsvxM/5PRn+UgDlvfB9Lf4VOfqvyGXW+iYUPq4ooCHw8W83aYV2EGLP+MypeayedBXTB4+1jA09El4n/OotHaP9GN5nj40ccATMQV3A4eDtJ3iSgMEmj0VvkI3dCBM6WuOvLEo89DQx5mi4A2PfycIPxfShIIAXYrp5zi7QW9z8kcn/EPKOT7P3/GXzOhbGm+W+6mhoY9NA2d3hU39Qfj5cm7bp8A5X/0E4MozzmSEaxLo19VpQ/xS/QxkQRnQzy0ua50WBmho6JOCSczmdPHr7U52K8S1KrQR/C/lVPkFF+ckNqdXaUK+nKXX21py09JrARzPWaGfT0vihIN0XWZdGR765Py0uI9S7L33VX8CuorCyeBpyj1tarPVYA9P/PpStPzZFW0EN9aqy69kcH0HkxxmfY+5gPfw0G8BnfJPFCe++55YsVFUp9pG6f0QfhlXuWJRZmLxe9iUywKuyTlR/5NzSrXYJraeotXniYt7i8NDH1eNiYO/pC3c2isvNXJu5nG14LIHL9xyAyjKzJbdAk4T8jpBJJfSXZ2pWOjzXMlJopRllQxPZPo2N8BDRJ8k9HD+Lsbf++7NH+zi4j63+6TKxhM+0Fbdclv1MilzvpvrsrClOTJ9fpNkiOiTvgAgJzAUizvPPPljLqiSDxQU4/8C2F47OuDrfMszn7Zlzr7DhYsi0heNr2GiT3JkRIeX8P/uAPDg/2LTrfbwCcX4j/gdlsJjvx0WJMb4hcnrQeqyDZI+OVoMNMlTE8Va79t/MAbCHP/g031X7xc+Hhc+4c3dAzrxX2Gjx/L82ZxBGXwA0mJeYcSKkCKcoaLPKmd81iVuFms3765/PCc44uToyhfM/sItbAtNTnT8vV0QTU6/VIXgYvrKqzMjVAKOKxkdQ0WflnICOLNEnYBqtd7Nzc6bN2924P/IMr1fXoDsHdYf3HMUjjHknP+lkR7fRJEl//cQaLK/o1TBtmWnY7jok6o9XtqPhwALTiaMg9vU3Sc8zxyTsrZQOmftaoGcofOnH4tlvKefR7oAafgK8GBNWXqGjD4x+mFnv08oecvyMNwQ5WclNTD9+JEL7vRsz5A+XPTnNcan7VWKORR95/nR5KMr2SYDpk+bA+A/N57qj5+Bz/RJ2aM2Dk7q2bx8SgnGzehDWaqvszO8zfSUzwtrTOm7beWXtRsMq8NGn1VDQceifdSfD0GAJonoFzD9y3J5/4ixN6SPJFlaysxlKiX/AvBSiMJPJqdm5BelElFmu9BvY1MS8u75qg3+CPpf3upf2+HDb9TAZ/RT5XJqH1XuxLNTn9+/spQ1kLlMybJ8GpmbEaUe+v08WbkFo3Q8TylxjxJwDujq9L828RUA4ZvYu6X0afnUQxObZyyuiNVQEP8b5bQidLyA5PbSHRVM/793Kbd2J7L+nbnJGvSd/T9IV15GAHj26qZYY3Zmb+c6zi0OdOV18WOLc6NwfIEGgBTv1FSTHYsqml1oKL9fv0L+1c3Ou29/PQf80rDGXARkdxKL0wnwH3+4+OedW7c27Ps/RlS0gTRpXec+rrMKP86BxWPX16V1bKmzNX63q4EkffZRBPLOJ3nHdV+lLsJp+4O7tUhLqZIAM3iIt/39cpIRTR6/PUX25jvqMoL4v6Gdw22rU9U3zBUccZnhltPm9LLXAKDPuZortIAQyqZC8X2c1l9o4ypt41fZGwnZ3IU4kdeNyyZo5iCx3s06ww+e3ALwsuq8OWqDvFDQ/L1DIy151zUCHRrxqDQ6dMony256Wnbdu7wNGgfnL6/2rs5O6ZiEOp0ysmK5jPNCtClXmplaIRmv+fVHGZ3bOif5vvwaLeQRjMVTnJOwzawGlhX0nvGk5h0zZCgiHaMcPYEabJseJFEkq1+i9eWtx6LKVHT2UHJq+QQ0B92nyZGS+04RrXmpspWYhDOWBxaLVNpxV96OYh2N5WHFynTX89DS76zX9ZnLIy7/A7bF4EmDp9/fAAAAAElFTkSuQmCC;" vertex="1" parent="1">
          <mxGeometry x="357.75" y="343.2" width="41" height="14.2" as="geometry" />
        </mxCell>
        <mxCell id="m7b0EnBtJ6y3r6dGydWh-126" value="egress" style="text;html=1;strokeColor=none;fillColor=none;align=center;verticalAlign=middle;whiteSpace=wrap;rounded=0;" vertex="1" parent="1">
          <mxGeometry x="796" y="327" width="40" height="20" as="geometry" />
        </mxCell>
        <mxCell id="m7b0EnBtJ6y3r6dGydWh-129" value="ingress" style="text;html=1;strokeColor=none;fillColor=none;align=center;verticalAlign=middle;whiteSpace=wrap;rounded=0;" vertex="1" parent="1">
          <mxGeometry x="273.5" y="323.2" width="40" height="20" as="geometry" />
        </mxCell>
        <mxCell id="m7b0EnBtJ6y3r6dGydWh-133" value="" style="shape=image;verticalLabelPosition=bottom;labelBackgroundColor=#ffffff;verticalAlign=top;aspect=fixed;imageAspect=0;image=data:image/png,iVBORw0KGgoAAAANSUhEUgAAAX0AAACECAMAAABLTQsGAAABNVBMVEX///8BAQEAAADZ8f3/4QDp6ekAru88PDxCQkJvb2++vr6urq6lpaX29vaioqIuLi40NDTf+P//5QDX19e4uLgAsfPGxsbh+v//6AB5eXkAqu6cnJyEhITU1NRkZGTOzs7v7+8cHByCgoJPT0/h4eGSoqrI3ulRUVEmJiYODg5ycnKMjIxbW1u6z9kAmtRFTVHS6fXUuwA8Q0anusMAibxdZ2wBKTgAeKQBUG4BOU7O7vxeUwF4hoz32gApJAEzODuFlJxpdHqJ1PcAXH4Als4BJTOfsbqNnaW2oQA7u/J5awHLswDiyAAAbJTBqgA1LwFFPQEhGxY/jbCy5v8BFB0ma4iE0/dfw/MxufGk3/mYhgAARV4bFwEALkRxttaGdwGlkgByZAFxlKZPRgE7NQGVw9lgVQGq5+vfAAAUHElEQVR4nO2dC1caSRaAoRBEEBGQhxKxUYK0+H5EYyQ+4pjEmGR24655zGySze78/5+wVd31ruru6hYDG7jnzJkTpIvqr25X3Xvr1u1Y7CFkugPSSw/S8lgCZRkgyQy6G6MpJQDi8ThoDrofoykNBD8OwKD7MZLiqv6Y/mBkyoEfB91Bd2QUxSKqnxt0T0ZR6mPVH6B0XNW3x6o/AFnCE8/yoDsykrKMZ/3SoDsykpJ26U8Ouh8jKUk88dQH3ZGRlOx44hmgLI/93AHKikt/fdD9GEnJxV36M4PuyEhKDi+649j+IKSFwwytQXdkJKUyXnQHKHNj+gOU7Jj+AAXTH2/pDkQwfXvQ/RhNGc88g5TMmP6AJGdZVgbb++ONrZ8ouaVuYyXftO0mpr846B6NjmTWAZW4S3/eMrludbZr8r2xeMu0zahTAWA1MNSzhq6zrZ/QxV9WKnmFPMYPZud8r3STrsD8T+roryjLevZ4ANIV7ysbOBqa/3md/cUkl/aB7+j/lIfxk5zEV46336OKZfvCd/lrrZ85slIAMP2ze/2LSC4dwN7Fq25zWVPUNgKNAXT8/0CSpaW5end5Hslyd2ZuabElzSJTQZqPAcvr6ow9hu8ji9n5dAeo0pxdr2doqkjWCL6CeLpJr1MHZtSlNLMieU5sCscy2a3k6A5uOPytLtcuGKdcCVLq5lXsMkpHVmfmTeGja9Zg47mWO7D0U9vHHh09ya4EkBfHwBg++nq33sgLF8EBTA76hodIMp1wREOJPJMBnSk0umKtKuyVRbefY9GwBn3HQyQVES6xcU53t7a21uF/u3m7b2MA21jva46tlTQQy/LfcghuJKCBmEkv5CadC7PSrAB2D872NtrbiULVlcR2u72xd3a+1bzvCCC973Pwf15jHKtiT67PZ71HPR3cQmel8WjOO00sb9QNQZAxgvx+yiYOmid7EHshoUoBjcLVyW7EEXAvq/d9sX0U4n5nH3kMwKppC/kpj9D5ZCjwjiB3Z5G5no5s68izIYADs3fiPAOh4ee7D5HW/yiM7QtAWvvorRg24hCq6yahydAKiejn8hT+0/1N2PZJ1Y8+fgo2TvIh+QP7gUzMEPTj7tSn6YhJzIq1ALoq/2j06yTc+Le/l8vlI9j0RiB9NACJjYNQ/B+saEk4+qgjGj8vBH2nibxSACcafRvDz7c/LKTKSPl3TeijAWifh+H/UEcqwtJH8LL3o68LjUeiX8F7TPZ2IvE6lSq/NZt7XKludMzxP1TtgPD0Nc9hWPqwCelEciT6XZz/tAfXWqj8qfITiP+xKf5EIh9C+f03enWSSy5mMpWW5fedqUj2l2Q6hqaPwif3p4/P124hQ6fwGs098TD4CxshlH8qHPpSd5U4eZPz3iG5KPTjYOW+9CEmQZsi0Xfzn8CZY2YeI+W/RLd7DpdVaF1CT6uAPC1XoP+FfC/BGaiemtMPk9qcq8+KxvGkMlffi770IEagD9vgjadI9PGae+USvUD499HNdq7ae49Ptk5tkYGd3zo4e7zXRna/c0nhJMTEbxmz72qck7TeZI1EPw7S96YfF/aNItHHhwwfY32+W4Bm56WBn9Y5OLtqb8On4ywEfdM6hTMeP6q9PiJ98UB3NPp8hyLRxwVdTshs8nrz8Og3t6wdL/I/3f81D042zkPQN9tPKXkHXXQNKPTVy7S9EXbWItEXlD8S/XVu1U1U24+3uE4/OXrx9nD/cnMf3dCTy83N/f3Dty+Ont4G35v+54z8rWlP9vCnNFEumb7HlUpnhKlHoW/ShDDzK/R9bgPLPC4lBQCayfcY+i9v9zfhEuDIJpr7X6TK+J/lciq1uf8WPSHh4MdVJ0eryn6yortA+hXlAbHmVtRuiocMZPpganqGl3l9YIXbJJLpB8MHa7FFvOyeJ17iBfb26eGmyxgLwvyW/ROJOwqXhy+ehKIfbPDnVnz7q5t7gunHYsSpFL5n+dFXsrysGf8HSKFvNM1ikxO4OST20X6KJw9Bo9DPPz5CgZ8uOMKNwWWYiSe4QzkpSm43phdbrVKmQT9JK9cY0dfgF5bdYPqxWFJdHLgHSKFvNM12SU4fFEfrHbCI8eu7FLY/D46JfPj0z7u7jyk6Br+FirMF2Tw50ca3py3ylxZdiZVwhRl9zeLM98aEfsxSV1aWKRmNfoumVB5duugh2Y93Fx8SiU8L7rzT2ZZd3ONPF3flhQX4XJjDV917RcRpR/TkyVOhsDWkX7k/fVJ0jv8eXcqi0YfKj+eew7KDPnX36di1P1HU7RDe8JV2v6Vw/OEfISP8AT1p8OwnpaGq4M+VlduQvnXvmSem2YRhy25E+jly2Arslx30BC8KuqXgsnrqEeOpvgy5vxKQtVnn4StJhrl70o8p4Pg5zJD+tNIIjXRGpB/L0Lnn8OKYo3ux4AZ99KqfKJyF3FwMMHmWePhqug+hrzQSUfcDLE49fWXqYRoVlX5sje4tnvGxzbsFN9yv1/zCeVj4/qd4c/7w6eAo27KG9JfkrwmugyH9lkKfbhlFpk9/G4Atbk/9oxvt1+61FNoeB7Z86PsXSF3j4OtunXhhmj8Y0ZcTT8URNqRvPQT9ZIdcCpp7BDYKN6fg7e7pNP+xH3sXk/Khr8VT4eDrcpuT+G/q9qQZfVlrxfBwdN2nexbR6ceSTYofnLerZNF1jH3F3ExUN7b84TcPtuJKP/1Vn4usaRdnknCjrh1G9BVTXfqVyPP+vVddJEnuQAk4QVsryNpH9mZTYb/Nkhk0Oh4HHZQUsX0l/gU0Lb/fz3Kqr/s7sYfy6t6wQl/j02VtZc0VU4si2zz3tThdsfI80ZN2oXDhLrpb4nwvJJIA8Oyz5pTFhrNNud0B/Mf+UYYmg69ziDPkj5o4nUJ/vi5KV5ciLD2JhvTVUOh9vS0iDe5kAwAHexdues85W4YLBTcCzb72tVj7Jibg3t7SlJTtU+6b/udUMgy+bvOXGqOaEKdJfF9dhORwUWRflz5CCv25nLdo2q5zbcMO33453PyCTB60iVioVtsbZ1vCjQDwqjYxUdt5zo/HPucct5v0cQp4FwKL7+gy3pgnoFu4I+xtgbwVhb56StMvytbJe8pkOq8+GS0hO8chDRX55dXV1cuTg1NbQg9+3ED4ExPF3jWbtF6Uy7/RtYImPATtpyeZkmqGiT0YWnctNH0A0jJ8M/qrfs9QyN0V3a3UxYdU2lEU/mK/qhUnXKnt/IEp/1l27SS8TVwlhmmA7rMYQ1zhwv1R30hI+vp2DOgvaQ6HcxNquJ1FvSK1ptRJUnsHX3u1CSLFHgnU/QvlRDyFQ0PsowMSxPA19ln2tWKWWqz8jEc6UCj6sJmGrisK/bpwnmIx29Vl7fG31Q/6sVipEcQfsb9h7KHuf8aMz6uvU4LyJ7ZJCE+3XhLhJh6ZzBzLaPGK0YWhDyZn9GkpEfd1ubvqD32o//Pe+FEv/vjWo5OOS5+ofttNRoTK3yFm0h75m48BxvzcjjQsXMzZM0Aain6nkdU+hREzSjiG/aIfmyHE1HkOgOs3xaLAfqL4Bn8fGaevsYdMAqMFMvdo/CQiLHVKsEtz/KmUR55Xh515wIpGEaLR5wus9I1+HsO3Ff7gfU1Ue0f1v+PvbyQSVPlpGnrbxn/1PiPKNJzztJJCOptPNkRYmwe2NqsESqNlEvIeZL/ok6Ty697Oqx+yJ1uT2UN57n7fBf7aDVDQMxhVvA0Amp7Kzw5N0a9UhMSSWb8TR1HsfUUVItFf41voF/01rKw3xSJZT1m3dxTVL+5gvC8LCaL80OE9oD4yWXi93N0cNXmwW7C0LKY2rHlc6EojktpKbUbJYRYXqT7RxzuN4FnNmdKlq64V5ccjRLS9QM5gtMnCexXw0lGLBnnSsVxlWj4+2PSPEJU0sWwDa0XCHyV/X1y++0Qfn2EE74rMkmdX2T1Z+WvP3O+fYmX/hPcFaGooSTL3qkNl2SovJgExipyyy6NvRoUnLCXhz67Yku3UJ/okt9Bl+7t8b19l5e+9xxYP2Zb5iFOw6NRDrE6PeENSz8uRqaAklHmFLKiXJFnMrql+qri9EpI+XIrkjvWJPi7V+MOhXLtWNEua+Ys3OOOZbr6T3Xi2Kbbra/N7018LfINIVtVr7Y1ZdRU/v00Wij78yYZiQvQhzoMET/vfarwtzzX6XJx78NLAHTQ9RnlBfwKwRR4GOvPrHV4270tzTvAB30XNrOJxY4vqDMXZneHO6zY1aqTGOGd9pOO1mHHTPjMn+WbfT/D4i98wfbYFQ5Ih2vSTU/wdrS7LyZuOrJscsUvq5nQvtcooX+Ryhkzpo5/Laz2XaFm0suC8F2hvumvqV3XB+p3XfvwF0GSpDx9S7sFfEuyhqT8eS6ict2x7hANkIWmfZvSVRDTQYdOHWX1Fp28eVO+5t4WlhNW0J0zrYi/e77ClF68MYJdLPPno+rtbdN3dxvQ7Wo+Lq6INmlP1RcuspzlimxrSzypTD3PiTKJsoNnoLnm6jP2hvyTSJ3EEqWufaayHxBkOOPoX2N+lU0/1HLeqVRxW48U7mqMR+sgY0lfTQZj/p56eyAoyN1cJeBz7Q78i0dcoP/rzH696NWcEitjcP+HyDY+x1UOnngTe5dLXgGQJDWHqc3oUT/Smn/SZ+A131X3kYXRfNToJ/+t3N71esfdDpQ/9XbjsxrloQ5Uc0tD9ZIk93MbdzHnBD0OfDfaw0C+Jqy7yd+VkGMIfgOfvf39vq/Th1FP+E20K00ysAj5Yqj9AwWqvmpzsQtLiihFFp88s4GGhT2yed9SuKb7y2m3h7l6kf7yw7+wJM4er7Wf1sBzOWbNOLrFV0V43nXkyyjgNH31i738WzJpAg4zP+0FWD1J9YUh2faINXPK4kfLzh0orSnqsvxM/5PRn+UgDlvfB9Lf4VOfqvyGXW+iYUPq4ooCHw8W83aYV2EGLP+MypeayedBXTB4+1jA09El4n/OotHaP9GN5nj40ccATMQV3A4eDtJ3iSgMEmj0VvkI3dCBM6WuOvLEo89DQx5mi4A2PfycIPxfShIIAXYrp5zi7QW9z8kcn/EPKOT7P3/GXzOhbGm+W+6mhoY9NA2d3hU39Qfj5cm7bp8A5X/0E4MozzmSEaxLo19VpQ/xS/QxkQRnQzy0ua50WBmho6JOCSczmdPHr7U52K8S1KrQR/C/lVPkFF+ckNqdXaUK+nKXX21py09JrARzPWaGfT0vihIN0XWZdGR765Py0uI9S7L33VX8CuorCyeBpyj1tarPVYA9P/PpStPzZFW0EN9aqy69kcH0HkxxmfY+5gPfw0G8BnfJPFCe++55YsVFUp9pG6f0QfhlXuWJRZmLxe9iUywKuyTlR/5NzSrXYJraeotXniYt7i8NDH1eNiYO/pC3c2isvNXJu5nG14LIHL9xyAyjKzJbdAk4T8jpBJJfSXZ2pWOjzXMlJopRllQxPZPo2N8BDRJ8k9HD+Lsbf++7NH+zi4j63+6TKxhM+0Fbdclv1MilzvpvrsrClOTJ9fpNkiOiTvgAgJzAUizvPPPljLqiSDxQU4/8C2F47OuDrfMszn7Zlzr7DhYsi0heNr2GiT3JkRIeX8P/uAPDg/2LTrfbwCcX4j/gdlsJjvx0WJMb4hcnrQeqyDZI+OVoMNMlTE8Va79t/MAbCHP/g031X7xc+Hhc+4c3dAzrxX2Gjx/L82ZxBGXwA0mJeYcSKkCKcoaLPKmd81iVuFms3765/PCc44uToyhfM/sItbAtNTnT8vV0QTU6/VIXgYvrKqzMjVAKOKxkdQ0WflnICOLNEnYBqtd7Nzc6bN2924P/IMr1fXoDsHdYf3HMUjjHknP+lkR7fRJEl//cQaLK/o1TBtmWnY7jok6o9XtqPhwALTiaMg9vU3Sc8zxyTsrZQOmftaoGcofOnH4tlvKefR7oAafgK8GBNWXqGjD4x+mFnv08oecvyMNwQ5WclNTD9+JEL7vRsz5A+XPTnNcan7VWKORR95/nR5KMr2SYDpk+bA+A/N57qj5+Bz/RJ2aM2Dk7q2bx8SgnGzehDWaqvszO8zfSUzwtrTOm7beWXtRsMq8NGn1VDQceifdSfD0GAJonoFzD9y3J5/4ixN6SPJFlaysxlKiX/AvBSiMJPJqdm5BelElFmu9BvY1MS8u75qg3+CPpf3upf2+HDb9TAZ/RT5XJqH1XuxLNTn9+/spQ1kLlMybJ8GpmbEaUe+v08WbkFo3Q8TylxjxJwDujq9L828RUA4ZvYu6X0afnUQxObZyyuiNVQEP8b5bQidLyA5PbSHRVM/793Kbd2J7L+nbnJGvSd/T9IV15GAHj26qZYY3Zmb+c6zi0OdOV18WOLc6NwfIEGgBTv1FSTHYsqml1oKL9fv0L+1c3Ou29/PQf80rDGXARkdxKL0wnwH3+4+OedW7c27Ps/RlS0gTRpXec+rrMKP86BxWPX16V1bKmzNX63q4EkffZRBPLOJ3nHdV+lLsJp+4O7tUhLqZIAM3iIt/39cpIRTR6/PUX25jvqMoL4v6Gdw22rU9U3zBUccZnhltPm9LLXAKDPuZortIAQyqZC8X2c1l9o4ypt41fZGwnZ3IU4kdeNyyZo5iCx3s06ww+e3ALwsuq8OWqDvFDQ/L1DIy151zUCHRrxqDQ6dMony256Wnbdu7wNGgfnL6/2rs5O6ZiEOp0ysmK5jPNCtClXmplaIRmv+fVHGZ3bOif5vvwaLeQRjMVTnJOwzawGlhX0nvGk5h0zZCgiHaMcPYEabJseJFEkq1+i9eWtx6LKVHT2UHJq+QQ0B92nyZGS+04RrXmpspWYhDOWBxaLVNpxV96OYh2N5WHFynTX89DS76zX9ZnLIy7/A7bF4EmDp9/fAAAAAElFTkSuQmCC;" vertex="1" parent="1">
          <mxGeometry x="720" y="486" width="41" height="14.2" as="geometry" />
        </mxCell>
        <mxCell id="m7b0EnBtJ6y3r6dGydWh-135" value="ingress" style="text;html=1;strokeColor=none;fillColor=none;align=center;verticalAlign=middle;whiteSpace=wrap;rounded=0;" vertex="1" parent="1">
          <mxGeometry x="728" y="520" width="40" height="20" as="geometry" />
        </mxCell>
        <mxCell id="m7b0EnBtJ6y3r6dGydWh-136" value="" style="rounded=0;whiteSpace=wrap;html=1;fillColor=none;strokeColor=#FF0000;strokeWidth=2;" vertex="1" parent="1">
          <mxGeometry x="1023" y="471.87" width="170" height="30" as="geometry" />
        </mxCell>
        <mxCell id="m7b0EnBtJ6y3r6dGydWh-137" value="" style="rounded=0;whiteSpace=wrap;html=1;fillColor=none;strokeColor=#FF0000;strokeWidth=2;" vertex="1" parent="1">
          <mxGeometry x="1023" y="510" width="170" height="30" as="geometry" />
        </mxCell>
        <mxCell id="m7b0EnBtJ6y3r6dGydWh-152" style="edgeStyle=none;rounded=0;orthogonalLoop=1;jettySize=auto;html=1;exitX=0;exitY=0.5;exitDx=0;exitDy=0;dashed=1;endArrow=openThin;endFill=0;strokeColor=#000000;strokeWidth=1;" edge="1" parent="1" source="m7b0EnBtJ6y3r6dGydWh-138">
          <mxGeometry relative="1" as="geometry">
            <mxPoint x="780" y="530" as="targetPoint" />
            <Array as="points">
              <mxPoint x="870" y="486" />
              <mxPoint x="870" y="530" />
            </Array>
          </mxGeometry>
        </mxCell>
        <mxCell id="m7b0EnBtJ6y3r6dGydWh-138" value="Mac-ens0" style="rounded=0;whiteSpace=wrap;html=1;strokeColor=#000000;fillColor=#FFF2CC;" vertex="1" parent="1">
          <mxGeometry x="903" y="475.62" width="60" height="20" as="geometry" />
        </mxCell>
        <mxCell id="m7b0EnBtJ6y3r6dGydWh-139" value="Mac-ens1" style="rounded=0;whiteSpace=wrap;html=1;strokeColor=#000000;fillColor=#FFF2CC;" vertex="1" parent="1">
          <mxGeometry x="963" y="475.62" width="60" height="20" as="geometry" />
        </mxCell>
        <mxCell id="m7b0EnBtJ6y3r6dGydWh-140" value="IP-eth0" style="rounded=0;whiteSpace=wrap;html=1;strokeColor=#000000;fillColor=#F8CECC;" vertex="1" parent="1">
          <mxGeometry x="1023" y="475.62" width="45" height="20" as="geometry" />
        </mxCell>
        <mxCell id="m7b0EnBtJ6y3r6dGydWh-141" value="IP-eth1" style="rounded=0;whiteSpace=wrap;html=1;strokeColor=#000000;fillColor=#F8CECC;" vertex="1" parent="1">
          <mxGeometry x="1068" y="475.62" width="45" height="20" as="geometry" />
        </mxCell>
        <mxCell id="m7b0EnBtJ6y3r6dGydWh-142" value="1234" style="rounded=0;whiteSpace=wrap;html=1;strokeColor=#000000;fillColor=#D5E8D4;" vertex="1" parent="1">
          <mxGeometry x="1113" y="475.62" width="40" height="20" as="geometry" />
        </mxCell>
        <mxCell id="m7b0EnBtJ6y3r6dGydWh-143" value="8080" style="rounded=0;whiteSpace=wrap;html=1;strokeColor=#000000;fillColor=#D5E8D4;" vertex="1" parent="1">
          <mxGeometry x="1153" y="475.87" width="35" height="20" as="geometry" />
        </mxCell>
        <mxCell id="m7b0EnBtJ6y3r6dGydWh-153" style="edgeStyle=none;rounded=0;orthogonalLoop=1;jettySize=auto;html=1;exitX=0;exitY=0.5;exitDx=0;exitDy=0;dashed=1;endArrow=none;endFill=0;strokeColor=#000000;strokeWidth=1;" edge="1" parent="1" source="m7b0EnBtJ6y3r6dGydWh-144">
          <mxGeometry relative="1" as="geometry">
            <mxPoint x="869.9999999999995" y="523.4705882352941" as="targetPoint" />
          </mxGeometry>
        </mxCell>
        <mxCell id="m7b0EnBtJ6y3r6dGydWh-144" value="Mac-ens0" style="rounded=0;whiteSpace=wrap;html=1;strokeColor=#000000;fillColor=#FFF2CC;" vertex="1" parent="1">
          <mxGeometry x="903" y="513.75" width="60" height="20" as="geometry" />
        </mxCell>
        <mxCell id="m7b0EnBtJ6y3r6dGydWh-145" value="Mac-ens1" style="rounded=0;whiteSpace=wrap;html=1;strokeColor=#000000;fillColor=#FFF2CC;" vertex="1" parent="1">
          <mxGeometry x="963" y="513.75" width="60" height="20" as="geometry" />
        </mxCell>
        <mxCell id="m7b0EnBtJ6y3r6dGydWh-146" value="IP-ens0" style="rounded=0;whiteSpace=wrap;html=1;strokeColor=#000000;fillColor=#F8CECC;" vertex="1" parent="1">
          <mxGeometry x="1023" y="513.75" width="45" height="20" as="geometry" />
        </mxCell>
        <mxCell id="m7b0EnBtJ6y3r6dGydWh-147" value="IP-ens1" style="rounded=0;whiteSpace=wrap;html=1;strokeColor=#000000;fillColor=#F8CECC;" vertex="1" parent="1">
          <mxGeometry x="1068" y="513.75" width="45" height="20" as="geometry" />
        </mxCell>
        <mxCell id="m7b0EnBtJ6y3r6dGydWh-148" value="40001" style="rounded=0;whiteSpace=wrap;html=1;strokeColor=#000000;fillColor=#D5E8D4;" vertex="1" parent="1">
          <mxGeometry x="1113" y="513.75" width="40" height="20" as="geometry" />
        </mxCell>
        <mxCell id="m7b0EnBtJ6y3r6dGydWh-149" value="50001" style="rounded=0;whiteSpace=wrap;html=1;strokeColor=#000000;fillColor=#D5E8D4;" vertex="1" parent="1">
          <mxGeometry x="1153" y="513.75" width="35" height="20" as="geometry" />
        </mxCell>
        <mxCell id="m7b0EnBtJ6y3r6dGydWh-150" value="Option 1" style="text;html=1;strokeColor=none;fillColor=none;align=center;verticalAlign=middle;whiteSpace=wrap;rounded=0;" vertex="1" parent="1">
          <mxGeometry x="1215" y="476.87" width="60" height="20" as="geometry" />
        </mxCell>
        <mxCell id="m7b0EnBtJ6y3r6dGydWh-151" value="Option 2" style="text;html=1;strokeColor=none;fillColor=none;align=center;verticalAlign=middle;whiteSpace=wrap;rounded=0;" vertex="1" parent="1">
          <mxGeometry x="1215" y="513.75" width="60" height="20" as="geometry" />
        </mxCell>
        <mxCell id="m7b0EnBtJ6y3r6dGydWh-167" style="edgeStyle=none;rounded=0;orthogonalLoop=1;jettySize=auto;html=1;exitX=0;exitY=0.5;exitDx=0;exitDy=0;dashed=1;endArrow=openThin;endFill=0;strokeColor=#000000;strokeWidth=1;" edge="1" parent="1" source="m7b0EnBtJ6y3r6dGydWh-161">
          <mxGeometry relative="1" as="geometry">
            <mxPoint x="849.9999999999995" y="336.41176470588243" as="targetPoint" />
          </mxGeometry>
        </mxCell>
        <mxCell id="m7b0EnBtJ6y3r6dGydWh-161" value="Mac-veth1" style="rounded=0;whiteSpace=wrap;html=1;strokeColor=#000000;fillColor=#FFF2CC;" vertex="1" parent="1">
          <mxGeometry x="903" y="326" width="60" height="20" as="geometry" />
        </mxCell>
        <mxCell id="m7b0EnBtJ6y3r6dGydWh-162" value="Mac-eth1" style="rounded=0;whiteSpace=wrap;html=1;strokeColor=#000000;fillColor=#FFF2CC;" vertex="1" parent="1">
          <mxGeometry x="963" y="326" width="60" height="20" as="geometry" />
        </mxCell>
        <mxCell id="m7b0EnBtJ6y3r6dGydWh-163" value="IP-eth0" style="rounded=0;whiteSpace=wrap;html=1;strokeColor=#000000;fillColor=#F8CECC;" vertex="1" parent="1">
          <mxGeometry x="1023" y="326" width="45" height="20" as="geometry" />
        </mxCell>
        <mxCell id="m7b0EnBtJ6y3r6dGydWh-164" value="IP-eth1" style="rounded=0;whiteSpace=wrap;html=1;strokeColor=#000000;fillColor=#F8CECC;" vertex="1" parent="1">
          <mxGeometry x="1068" y="326" width="45" height="20" as="geometry" />
        </mxCell>
        <mxCell id="m7b0EnBtJ6y3r6dGydWh-165" value="1234" style="rounded=0;whiteSpace=wrap;html=1;strokeColor=#000000;fillColor=#D5E8D4;" vertex="1" parent="1">
          <mxGeometry x="1113" y="326" width="40" height="20" as="geometry" />
        </mxCell>
        <mxCell id="m7b0EnBtJ6y3r6dGydWh-166" value="8080" style="rounded=0;whiteSpace=wrap;html=1;strokeColor=#000000;fillColor=#D5E8D4;" vertex="1" parent="1">
          <mxGeometry x="1153" y="326" width="35" height="20" as="geometry" />
        </mxCell>
        <mxCell id="m7b0EnBtJ6y3r6dGydWh-169" value="Pod IP -&amp;gt; Pod Mac(inner mac and outer mac)" style="text;html=1;align=center;verticalAlign=middle;resizable=0;points=[];autosize=1;strokeColor=none;" vertex="1" parent="1">
          <mxGeometry x="730" y="620" width="260" height="20" as="geometry" />
        </mxCell>
        <mxCell id="m7b0EnBtJ6y3r6dGydWh-171" value="&lt;table cellpadding=&quot;4&quot; cellspacing=&quot;0&quot; border=&quot;1&quot; style=&quot;font-size: 1em ; width: 100% ; height: 100%&quot;&gt;&lt;tbody&gt;&lt;tr&gt;&lt;th&gt;Pod IP&lt;/th&gt;&lt;th&gt;Host IP&lt;/th&gt;&lt;/tr&gt;&lt;tr&gt;&lt;td&gt;IP-eth0&lt;/td&gt;&lt;td&gt;IP-ens0&lt;/td&gt;&lt;/tr&gt;&lt;tr&gt;&lt;td&gt;IP-eth1&lt;/td&gt;&lt;td&gt;IP-ens1&lt;/td&gt;&lt;/tr&gt;&lt;/tbody&gt;&lt;/table&gt; " style="verticalAlign=top;align=left;overflow=fill;fontSize=12;fontFamily=Helvetica;html=1;strokeColor=#000000;fillColor=#FFFFFF;" vertex="1" parent="1">
          <mxGeometry x="390" y="640" width="302.5" height="90" as="geometry" />
        </mxCell>
        <mxCell id="m7b0EnBtJ6y3r6dGydWh-172" value="Pod IP -&amp;gt; Host IP" style="text;html=1;align=center;verticalAlign=middle;resizable=0;points=[];autosize=1;strokeColor=none;" vertex="1" parent="1">
          <mxGeometry x="390" y="620" width="110" height="20" as="geometry" />
        </mxCell>
        <mxCell id="m7b0EnBtJ6y3r6dGydWh-173" value="&lt;table cellpadding=&quot;4&quot; cellspacing=&quot;0&quot; border=&quot;1&quot; style=&quot;font-size: 1em ; width: 100% ; height: 100%&quot;&gt;&lt;tbody&gt;&lt;tr&gt;&lt;th&gt;Host IP&lt;/th&gt;&lt;th&gt;Host Mac&lt;/th&gt;&lt;/tr&gt;&lt;tr&gt;&lt;td&gt;IP-eth0&lt;/td&gt;&lt;td&gt;Mac-eth0&lt;/td&gt;&lt;/tr&gt;&lt;tr&gt;&lt;td&gt;IP-eth1&lt;/td&gt;&lt;td&gt;Mac-eth1&lt;/td&gt;&lt;/tr&gt;&lt;/tbody&gt;&lt;/table&gt; " style="verticalAlign=top;align=left;overflow=fill;fontSize=12;fontFamily=Helvetica;html=1;strokeColor=#000000;fillColor=#FFFFFF;" vertex="1" parent="1">
          <mxGeometry x="47.5" y="640" width="302.5" height="90" as="geometry" />
        </mxCell>
        <mxCell id="m7b0EnBtJ6y3r6dGydWh-174" value="Host IP-&amp;gt;Host Mac" style="text;html=1;align=center;verticalAlign=middle;resizable=0;points=[];autosize=1;strokeColor=none;" vertex="1" parent="1">
          <mxGeometry x="40" y="620" width="120" height="20" as="geometry" />
        </mxCell>
        <mxCell id="m7b0EnBtJ6y3r6dGydWh-176" style="edgeStyle=none;rounded=0;orthogonalLoop=1;jettySize=auto;html=1;dashed=1;endArrow=openThin;endFill=0;strokeColor=#000000;strokeWidth=1;shape=flexArrow;" edge="1" parent="1">
          <mxGeometry relative="1" as="geometry">
            <mxPoint x="1060.4099999999999" y="360" as="targetPoint" />
            <mxPoint x="1059.9982352941174" y="450" as="sourcePoint" />
          </mxGeometry>
        </mxCell>
        <mxCell id="m7b0EnBtJ6y3r6dGydWh-177" value="Option 1" style="text;html=1;strokeColor=none;fillColor=none;align=center;verticalAlign=middle;whiteSpace=wrap;rounded=0;" vertex="1" parent="1">
          <mxGeometry x="-40" y="665" width="60" height="20" as="geometry" />
        </mxCell>
        <mxCell id="m7b0EnBtJ6y3r6dGydWh-179" value="" style="rounded=0;whiteSpace=wrap;html=1;strokeWidth=2;fillColor=none;dashed=1;" vertex="1" parent="1">
          <mxGeometry x="-60" y="770" width="1150" height="290" as="geometry" />
        </mxCell>
        <mxCell id="m7b0EnBtJ6y3r6dGydWh-180" value="&lt;table cellpadding=&quot;4&quot; cellspacing=&quot;0&quot; border=&quot;1&quot; style=&quot;font-size: 1em ; width: 100% ; height: 100%&quot;&gt;&lt;tbody&gt;&lt;tr&gt;&lt;th&gt;Pod IP&lt;/th&gt;&lt;th&gt;Pod Mac&lt;/th&gt;&lt;/tr&gt;&lt;tr&gt;&lt;td&gt;IP-eth0&lt;/td&gt;&lt;td&gt;Mac-eth0, Mac-veth0&lt;/td&gt;&lt;/tr&gt;&lt;tr&gt;&lt;td&gt;IP-eth1&lt;/td&gt;&lt;td&gt;Mac-eth1, Mac-veth1&lt;/td&gt;&lt;/tr&gt;&lt;/tbody&gt;&lt;/table&gt; " style="verticalAlign=top;align=left;overflow=fill;fontSize=12;fontFamily=Helvetica;html=1;strokeColor=#000000;fillColor=#FFFFFF;" vertex="1" parent="1">
          <mxGeometry x="737.5" y="820" width="302.5" height="90" as="geometry" />
        </mxCell>
        <mxCell id="m7b0EnBtJ6y3r6dGydWh-182" value="&lt;table cellpadding=&quot;4&quot; cellspacing=&quot;0&quot; border=&quot;1&quot; style=&quot;font-size: 1em ; width: 100% ; height: 100%&quot;&gt;&lt;tbody&gt;&lt;tr&gt;&lt;th&gt;Pod IP&lt;/th&gt;&lt;th&gt;Host IP&lt;/th&gt;&lt;/tr&gt;&lt;tr&gt;&lt;td&gt;IP-eth0&lt;/td&gt;&lt;td&gt;IP-ens0&lt;/td&gt;&lt;/tr&gt;&lt;tr&gt;&lt;td&gt;IP-eth1&lt;/td&gt;&lt;td&gt;IP-ens1&lt;/td&gt;&lt;/tr&gt;&lt;/tbody&gt;&lt;/table&gt; " style="verticalAlign=top;align=left;overflow=fill;fontSize=12;fontFamily=Helvetica;html=1;strokeColor=#000000;fillColor=#FFFFFF;" vertex="1" parent="1">
          <mxGeometry x="390" y="820" width="302.5" height="90" as="geometry" />
        </mxCell>
        <mxCell id="m7b0EnBtJ6y3r6dGydWh-183" value="Pod IP -&amp;gt; Host IP" style="text;html=1;align=center;verticalAlign=middle;resizable=0;points=[];autosize=1;strokeColor=none;" vertex="1" parent="1">
          <mxGeometry x="390" y="800" width="110" height="20" as="geometry" />
        </mxCell>
        <mxCell id="m7b0EnBtJ6y3r6dGydWh-184" value="&lt;table cellpadding=&quot;4&quot; cellspacing=&quot;0&quot; border=&quot;1&quot; style=&quot;font-size: 1em ; width: 100% ; height: 100%&quot;&gt;&lt;tbody&gt;&lt;tr&gt;&lt;th&gt;Host IP&lt;/th&gt;&lt;th&gt;Host Mac&lt;/th&gt;&lt;/tr&gt;&lt;tr&gt;&lt;td&gt;IP-eth0&lt;/td&gt;&lt;td&gt;Mac-eth0&lt;/td&gt;&lt;/tr&gt;&lt;tr&gt;&lt;td&gt;IP-eth1&lt;/td&gt;&lt;td&gt;Mac-eth1&lt;/td&gt;&lt;/tr&gt;&lt;/tbody&gt;&lt;/table&gt; " style="verticalAlign=top;align=left;overflow=fill;fontSize=12;fontFamily=Helvetica;html=1;strokeColor=#000000;fillColor=#FFFFFF;" vertex="1" parent="1">
          <mxGeometry x="47.5" y="820" width="302.5" height="90" as="geometry" />
        </mxCell>
        <mxCell id="m7b0EnBtJ6y3r6dGydWh-185" value="Host IP-&amp;gt;Host Mac" style="text;html=1;align=center;verticalAlign=middle;resizable=0;points=[];autosize=1;strokeColor=none;" vertex="1" parent="1">
          <mxGeometry x="40" y="800" width="120" height="20" as="geometry" />
        </mxCell>
        <mxCell id="m7b0EnBtJ6y3r6dGydWh-186" value="Option 2" style="text;html=1;strokeColor=none;fillColor=none;align=center;verticalAlign=middle;whiteSpace=wrap;rounded=0;" vertex="1" parent="1">
          <mxGeometry x="-40" y="920" width="60" height="20" as="geometry" />
        </mxCell>
        <mxCell id="m7b0EnBtJ6y3r6dGydWh-188" value="&lt;table cellpadding=&quot;4&quot; cellspacing=&quot;0&quot; border=&quot;1&quot; style=&quot;font-size: 1em ; width: 100% ; height: 100%&quot;&gt;&lt;tbody&gt;&lt;tr&gt;&lt;th&gt;Pod IP:Port&lt;/th&gt;&lt;th&gt;Host IP:Port&lt;/th&gt;&lt;/tr&gt;&lt;tr&gt;&lt;td&gt;IP-eth0:1234&lt;/td&gt;&lt;td&gt;IP-ens0:40001&lt;/td&gt;&lt;/tr&gt;&lt;tr&gt;&lt;td&gt;IP-eth1:8080&lt;/td&gt;&lt;td&gt;IP-ens1:50001&lt;/td&gt;&lt;/tr&gt;&lt;/tbody&gt;&lt;/table&gt; " style="verticalAlign=top;align=left;overflow=fill;fontSize=12;fontFamily=Helvetica;html=1;strokeColor=#000000;fillColor=#FFFFFF;" vertex="1" parent="1">
          <mxGeometry x="47.5" y="950" width="302.5" height="90" as="geometry" />
        </mxCell>
        <mxCell id="m7b0EnBtJ6y3r6dGydWh-189" value="Pod IP:Port -&amp;gt; Host IP:Port" style="text;html=1;align=center;verticalAlign=middle;resizable=0;points=[];autosize=1;strokeColor=none;" vertex="1" parent="1">
          <mxGeometry x="47.5" y="930" width="160" height="20" as="geometry" />
        </mxCell>
        <mxCell id="m7b0EnBtJ6y3r6dGydWh-190" value="&lt;table cellpadding=&quot;4&quot; cellspacing=&quot;0&quot; border=&quot;1&quot; style=&quot;font-size: 1em ; width: 100% ; height: 100%&quot;&gt;&lt;tbody&gt;&lt;tr&gt;&lt;th&gt;Host IP:Port&lt;/th&gt;&lt;th&gt;Pod IP:Port&lt;/th&gt;&lt;/tr&gt;&lt;tr&gt;&lt;td&gt;IP-ens0:40001&lt;/td&gt;&lt;td&gt;IP-eth0:1234&lt;/td&gt;&lt;/tr&gt;&lt;tr&gt;&lt;td&gt;IP-ens1:50001&lt;/td&gt;&lt;td&gt;IP-eth1:8080&lt;/td&gt;&lt;/tr&gt;&lt;/tbody&gt;&lt;/table&gt; " style="verticalAlign=top;align=left;overflow=fill;fontSize=12;fontFamily=Helvetica;html=1;strokeColor=#000000;fillColor=#FFFFFF;" vertex="1" parent="1">
          <mxGeometry x="390" y="950" width="302.5" height="90" as="geometry" />
        </mxCell>
        <mxCell id="m7b0EnBtJ6y3r6dGydWh-191" value="Host IP:Port -&amp;gt; Pod IP:Port" style="text;html=1;align=center;verticalAlign=middle;resizable=0;points=[];autosize=1;strokeColor=none;" vertex="1" parent="1">
          <mxGeometry x="390" y="930" width="160" height="20" as="geometry" />
        </mxCell>
        <mxCell id="m7b0EnBtJ6y3r6dGydWh-192" value="&lt;font style=&quot;font-size: 21px&quot;&gt;Pod 0 sends msg to Pod 1&lt;/font&gt;" style="text;html=1;strokeColor=none;fillColor=none;align=center;verticalAlign=middle;whiteSpace=wrap;rounded=0;dashed=1;" vertex="1" parent="1">
          <mxGeometry x="350" y="180" width="400" height="20" as="geometry" />
        </mxCell>
        <mxCell id="m7b0EnBtJ6y3r6dGydWh-196" value="" style="rounded=1;whiteSpace=wrap;html=1;dashed=1;strokeWidth=2;fillColor=none;strokeColor=#FF0000;" vertex="1" parent="1">
          <mxGeometry x="40" y="930" width="660" height="120" as="geometry" />
        </mxCell>
        <mxCell id="m7b0EnBtJ6y3r6dGydWh-197" value="" style="rounded=0;whiteSpace=wrap;html=1;strokeWidth=2;fillColor=none;dashed=1;" vertex="1" parent="1">
          <mxGeometry x="-60" y="1090" width="1150" height="130" as="geometry" />
        </mxCell>
        <mxCell id="m7b0EnBtJ6y3r6dGydWh-198" value="Option 3" style="text;html=1;strokeColor=none;fillColor=none;align=center;verticalAlign=middle;whiteSpace=wrap;rounded=0;" vertex="1" parent="1">
          <mxGeometry x="-40" y="1150" width="60" height="10" as="geometry" />
        </mxCell>
        <mxCell id="m7b0EnBtJ6y3r6dGydWh-200" value="&lt;font style=&quot;font-size: 14px&quot;&gt;Implement overlay network in XDP, mac in UDP&lt;/font&gt;" style="text;html=1;strokeColor=none;fillColor=none;align=center;verticalAlign=middle;whiteSpace=wrap;rounded=0;" vertex="1" parent="1">
          <mxGeometry x="-50" y="1090" width="300" height="20" as="geometry" />
        </mxCell>
        <mxCell id="m7b0EnBtJ6y3r6dGydWh-201" value="Pod IP -&amp;gt; Pod Mac(inner mac and outer mac)" style="text;html=1;align=center;verticalAlign=middle;resizable=0;points=[];autosize=1;strokeColor=none;" vertex="1" parent="1">
          <mxGeometry x="730" y="800" width="260" height="20" as="geometry" />
        </mxCell>
        <mxCell id="m7b0EnBtJ6y3r6dGydWh-203" value="&lt;font style=&quot;font-size: 14px&quot;&gt;Hosts are in L2 network&lt;/font&gt;" style="text;html=1;strokeColor=none;fillColor=none;align=center;verticalAlign=middle;whiteSpace=wrap;rounded=0;dashed=1;" vertex="1" parent="1">
          <mxGeometry x="-50" y="590" width="150" height="20" as="geometry" />
        </mxCell>
        <mxCell id="m7b0EnBtJ6y3r6dGydWh-204" value="&lt;font style=&quot;font-size: 14px&quot;&gt;Hosts are in L3 network&lt;/font&gt;" style="text;html=1;strokeColor=none;fillColor=none;align=center;verticalAlign=middle;whiteSpace=wrap;rounded=0;dashed=1;" vertex="1" parent="1">
          <mxGeometry x="-50" y="770" width="150" height="20" as="geometry" />
        </mxCell>
      </root>
    </mxGraphModel>
  </diagram>
</mxfile>
